<svg width="40" height="40" viewBox="0 0 40 40" fill="none" xmlns="http://www.w3.org/2000/svg">
<circle cx="20" cy="20" r="20" fill="#001871" fill-opacity="0.1"/>
<path d="M12.3844 16.2893C12.1023 16.6265 11.653 16.8937 11.2045 16.8546C11.1452 16.4 11.3687 15.913 11.6268 15.6112C11.9081 15.2672 12.4001 15.0203 12.7992 15C12.8464 15.4749 12.6612 15.9416 12.3844 16.2893ZM12.7947 16.9442C12.1428 16.9043 11.5833 17.3197 11.2742 17.3197C10.9584 17.3197 10.4851 16.9637 9.96983 16.9758C9.3015 16.984 8.67667 17.3672 8.33688 17.9836C7.62954 19.2097 8.15311 21.0251 8.83269 22.0247C9.16498 22.5184 9.56253 23.0596 10.0868 23.0446C10.5827 23.0242 10.7822 22.7156 11.38 22.7156C11.9853 22.7156 12.1571 23.0446 12.6852 23.0325C13.2275 23.0242 13.571 22.5388 13.9033 22.045C14.2821 21.4843 14.4381 20.9348 14.4464 20.9077C14.4381 20.8957 13.3955 20.4922 13.388 19.2767C13.3797 18.2568 14.2078 17.7713 14.2431 17.7435C13.778 17.0382 13.0437 16.9637 12.7939 16.9449L12.7947 16.9442ZM16.5571 15.5638V22.9813H17.6935V20.4456H19.265C20.6984 20.4456 21.7065 19.446 21.7065 18.0032C21.7065 16.5573 20.7186 15.5645 19.304 15.5645L16.5571 15.5638ZM17.6935 16.5362H19.0024C19.9865 16.5362 20.5499 17.0691 20.5499 18.0062C20.5499 18.9432 19.9865 19.4807 18.9949 19.4807H17.6935V16.5362ZM23.776 23.0363C24.4908 23.0363 25.1509 22.672 25.4525 22.0909H25.4765V22.9813H26.5266V19.288C26.5266 18.2222 25.6835 17.529 24.3821 17.529C23.1789 17.529 22.2878 18.2305 22.2571 19.1909H23.2764C23.3627 18.7325 23.7768 18.4344 24.3513 18.4344C25.0467 18.4344 25.4337 18.7634 25.4337 19.3678V19.775L24.0198 19.8615C22.6989 19.9435 21.9878 20.4885 21.9878 21.4414C21.9878 22.4018 22.7229 23.037 23.7768 23.037L23.776 23.0363ZM24.085 22.1579C23.479 22.1579 23.0927 21.8636 23.0927 21.4135C23.0927 20.9469 23.464 20.6721 24.1705 20.6285L25.433 20.5502V20.9694C25.433 21.6642 24.8509 22.1579 24.0805 22.1579H24.085ZM27.9293 25C29.0341 25 29.5547 24.5687 30.0078 23.2711L32 17.6027H30.8479L29.5119 21.981H29.4879L28.152 17.6027H26.9646L28.8871 23.0009L28.7851 23.3298C28.6088 23.883 28.3283 24.0975 27.828 24.0975C27.738 24.0975 27.5662 24.0863 27.4957 24.0787V24.9691C27.5617 24.988 27.8437 24.9962 27.9255 24.9962L27.9293 25Z" fill="#001871"/>
</svg>
