<svg width="40" height="40" viewBox="0 0 40 40" fill="none" xmlns="http://www.w3.org/2000/svg">
<circle cx="20" cy="20" r="20" fill="#001871" fill-opacity="0.1"/>
<path d="M28.814 27.5H11.186C10.7388 27.4996 10.3101 27.3217 9.99399 27.0055C9.67787 26.6892 9.5002 26.2604 9.5 25.8132V15.6875C9.5 15.2402 9.67758 14.8112 9.99373 14.4948C10.3099 14.1784 10.7387 14.0004 11.186 14H28.814C29.2612 14.0004 29.6899 14.1783 30.006 14.4945C30.3221 14.8108 30.4998 15.2396 30.5 15.6867V25.8125C30.5005 26.0341 30.4572 26.2537 30.3727 26.4585C30.2882 26.6634 30.164 26.8495 30.0074 27.0063C29.8507 27.1631 29.6647 27.2874 29.4599 27.3721C29.2551 27.4568 29.0356 27.5003 28.814 27.5Z" fill="#001871"/>
<path d="M25.5395 23H12.2105C12.0883 22.9994 11.9713 22.9505 11.885 22.8639C11.7987 22.7774 11.7502 22.6602 11.75 22.538V20.462C11.75 20.2122 11.954 20 12.2105 20H25.5395C25.7885 20 26 20.2047 26 20.462V22.5455C25.9996 22.6056 25.9874 22.665 25.964 22.7204C25.9407 22.7757 25.9066 22.8259 25.8639 22.8681C25.8211 22.9103 25.7705 22.9437 25.7148 22.9663C25.6592 22.989 25.5996 23.0004 25.5395 23Z" fill="white"/>
<path d="M27.0148 26H28.3603C28.4444 26.0003 28.5277 25.984 28.6054 25.9519C28.6832 25.9199 28.7538 25.8728 28.8133 25.8133C28.8728 25.7538 28.9199 25.6832 28.9519 25.6054C28.984 25.5277 29.0003 25.4444 29 25.3603V24.0148C29.0003 23.9307 28.984 23.8473 28.9519 23.7696C28.9199 23.6918 28.8728 23.6212 28.8133 23.5617C28.7538 23.5023 28.6832 23.4551 28.6054 23.4231C28.5277 23.3911 28.4444 23.3747 28.3603 23.375H27.0148C26.9307 23.3747 26.8473 23.3911 26.7696 23.4231C26.6918 23.4551 26.6212 23.5023 26.5617 23.5617C26.5023 23.6212 26.4551 23.6918 26.4231 23.7696C26.3911 23.8473 26.3747 23.9307 26.375 24.0148V25.3603C26.3764 25.5295 26.4442 25.6914 26.5639 25.8111C26.6836 25.9308 26.8455 25.9986 27.0148 26Z" fill="#FFD700"/>
<path d="M30.5 16.25H9.5V18.5H30.5V16.25Z" fill="white"/>
<path d="M12.5 21.5C12.5 21.4005 12.5395 21.3052 12.6098 21.2348C12.6802 21.1645 12.7755 21.125 12.875 21.125H21.125C21.2245 21.125 21.3198 21.1645 21.3902 21.2348C21.4605 21.3052 21.5 21.4005 21.5 21.5C21.5 21.5995 21.4605 21.6948 21.3902 21.7652C21.3198 21.8355 21.2245 21.875 21.125 21.875H12.875C12.7755 21.875 12.6802 21.8355 12.6098 21.7652C12.5395 21.6948 12.5 21.5995 12.5 21.5Z" fill="#001871"/>
</svg>
