<svg width="22" height="22" viewBox="0 0 22 22" fill="none" xmlns="http://www.w3.org/2000/svg">
<path d="M7.5925 3.76359L7.1451 2.75694C6.85257 2.09875 6.7063 1.76964 6.48756 1.51779C6.21341 1.20216 5.85607 0.969933 5.4563 0.847611C5.13732 0.75 4.77717 0.75 4.05689 0.75C3.00323 0.75 2.4764 0.75 2.03414 0.952544C1.51319 1.19113 1.04271 1.7092 0.855252 2.25066C0.696119 2.71032 0.741708 3.1827 0.832864 4.12744C1.80323 14.1835 7.31646 19.6968 17.3725 20.6671C18.3173 20.7583 18.7897 20.8039 19.2493 20.6448C19.7908 20.4573 20.3088 19.9868 20.5475 19.4659C20.7499 19.0235 20.7499 18.4968 20.7499 17.4431C20.7499 16.7228 20.7499 16.3626 20.6524 16.0436C20.53 15.6439 20.2978 15.2865 19.9822 15.0124C19.7304 14.7937 19.4013 14.6474 18.743 14.3549L17.7364 13.9074C17.0236 13.5907 16.6672 13.4323 16.305 13.3979C15.9584 13.3649 15.6089 13.4135 15.2845 13.5399C14.9455 13.6719 14.6459 13.9215 14.0466 14.4209C13.4502 14.918 13.1519 15.1665 12.7875 15.2997C12.4644 15.4177 12.0373 15.4614 11.6971 15.4112C11.3132 15.3547 11.0193 15.1977 10.4314 14.8834C8.6025 13.9061 7.59391 12.8975 6.61651 11.0685C6.30237 10.4808 6.1453 10.1868 6.08874 9.80299C6.03859 9.46266 6.0823 9.03555 6.20033 8.71255C6.33346 8.34808 6.582 8.04984 7.07909 7.45333C7.57846 6.85408 7.82815 6.55446 7.96016 6.21545C8.08649 5.89104 8.13512 5.54155 8.10216 5.19497C8.0677 4.8328 7.9093 4.4764 7.5925 3.76359Z" stroke="#767676" stroke-width="1.5" stroke-linecap="round"/>
</svg>
