<svg width="36" height="36" viewBox="0 0 36 36" fill="none" xmlns="http://www.w3.org/2000/svg">
<circle cx="18" cy="18" r="18" fill="#25C700"/>
<g clip-path="url(#clip0_6417_1430)">
<path d="M26.4804 27.9998C24.2582 27.9998 22.0626 27.5155 19.8937 26.547C17.7248 25.5785 15.7515 24.205 13.9737 22.4265C12.1959 20.648 10.8228 18.6747 9.85426 16.5065C8.88572 14.3383 8.4011 12.1427 8.40039 9.9198C8.40039 9.5998 8.50706 9.33314 8.72039 9.1198C8.93372 8.90647 9.20039 8.7998 9.52039 8.7998H13.8404C14.0893 8.7998 14.3115 8.88443 14.5071 9.05367C14.7026 9.22292 14.8182 9.42274 14.8537 9.65314L15.5471 13.3865C15.5826 13.6709 15.5737 13.9109 15.5204 14.1065C15.4671 14.302 15.3693 14.4709 15.2271 14.6131L12.6404 17.2265C12.9959 17.8842 13.418 18.5196 13.9065 19.1326C14.3951 19.7456 14.933 20.3369 15.5204 20.9065C16.0715 21.4576 16.6493 21.9689 17.2537 22.4403C17.8582 22.9118 18.4982 23.3427 19.1737 23.7331L21.6804 21.2265C21.8404 21.0665 22.0495 20.9466 22.3076 20.867C22.5657 20.7874 22.8189 20.765 23.0671 20.7998L26.7471 21.5465C26.9959 21.6176 27.2004 21.7466 27.3604 21.9337C27.5204 22.1207 27.6004 22.3294 27.6004 22.5598V26.8798C27.6004 27.1998 27.4937 27.4665 27.2804 27.6798C27.0671 27.8931 26.8004 27.9998 26.4804 27.9998Z" fill="white"/>
</g>
<defs>
<clipPath id="clip0_6417_1430">
<rect width="19.2" height="19.2" fill="white" transform="translate(8.40039 8.3999)"/>
</clipPath>
</defs>
</svg>
