<svg width="24" height="24" viewBox="0 0 24 24" fill="none" xmlns="http://www.w3.org/2000/svg">
<path fill-rule="evenodd" clip-rule="evenodd" d="M12 8C12.5523 8 13 8.44772 13 9V13.4444C13 13.9967 12.5523 14.4444 12 14.4444C11.4477 14.4444 11 13.9967 11 13.4444V9C11 8.44772 11.4477 8 12 8Z" fill="black"/>
<path fill-rule="evenodd" clip-rule="evenodd" d="M12 15.1111C12.5523 15.1111 13 15.5588 13 16.1111V17C13 17.5523 12.5523 18 12 18C11.4477 18 11 17.5523 11 17V16.1111C11 15.5588 11.4477 15.1111 12 15.1111Z" fill="black"/>
<path fill-rule="evenodd" clip-rule="evenodd" d="M3.16589 18.1321C2.71151 18.9198 3.266 20 4.35709 20H19.8931C20.9842 20 21.5387 18.9198 21.0843 18.1321L13.3163 4.66559C12.8044 3.77814 11.4458 3.77814 10.9339 4.66559L3.16589 18.1321ZM4.35709 22C1.85902 22 0.144789 19.3668 1.43346 17.1327L9.20148 3.66625C10.483 1.44459 13.7672 1.44458 15.0487 3.66625L22.8167 17.1327C24.1054 19.3668 22.3912 22 19.8931 22H4.35709Z" fill="black"/>
</svg>
