<svg width="36" height="36" viewBox="0 0 36 36" fill="none" xmlns="http://www.w3.org/2000/svg">
<path d="M19.3259 3.79776C18.8069 2.81676 17.1929 2.81676 16.6739 3.79776L3.17392 29.2978C3.05285 29.5264 2.99297 29.7824 3.00008 30.041C3.00719 30.2996 3.08106 30.552 3.21451 30.7736C3.34796 30.9952 3.53645 31.1785 3.76169 31.3058C3.98692 31.433 4.24123 31.4998 4.49992 31.4998H31.4999C31.7586 31.5003 32.013 31.4338 32.2383 31.3067C32.4636 31.1797 32.6522 30.9964 32.7856 30.7748C32.919 30.5531 32.9927 30.3007 32.9995 30.0421C33.0063 29.7835 32.946 29.5276 32.8244 29.2993L19.3259 3.79776ZM19.4999 26.9998H16.4999V23.9998H19.4999V26.9998ZM16.4999 20.9998V13.4998H19.4999L19.5014 20.9998H16.4999Z" fill="#CE1126"/>
</svg>
