<svg width="3" height="15" viewBox="0 0 3 15" fill="none" xmlns="http://www.w3.org/2000/svg">
<path fill-rule="evenodd" clip-rule="evenodd" d="M0 1.25C0 0.918479 0.131696 0.600537 0.366116 0.366117C0.600537 0.131696 0.918479 0 1.25 0H1.25833C1.58985 0 1.9078 0.131696 2.14222 0.366117C2.37664 0.600537 2.50833 0.918479 2.50833 1.25V1.25833C2.50833 1.58985 2.37664 1.9078 2.14222 2.14222C1.9078 2.37664 1.58985 2.50833 1.25833 2.50833H1.25C0.918479 2.50833 0.600537 2.37664 0.366116 2.14222C0.131696 1.9078 0 1.58985 0 1.25833V1.25ZM0 7.08333C0 6.75181 0.131696 6.43387 0.366116 6.19945C0.600537 5.96503 0.918479 5.83333 1.25 5.83333H1.25833C1.58985 5.83333 1.9078 5.96503 2.14222 6.19945C2.37664 6.43387 2.50833 6.75181 2.50833 7.08333V7.09167C2.50833 7.42319 2.37664 7.74113 2.14222 7.97555C1.9078 8.20997 1.58985 8.34167 1.25833 8.34167H1.25C0.918479 8.34167 0.600537 8.20997 0.366116 7.97555C0.131696 7.74113 0 7.42319 0 7.09167V7.08333ZM1.25 11.6667C0.918479 11.6667 0.600537 11.7984 0.366116 12.0328C0.131696 12.2672 0 12.5851 0 12.9167V12.925C0 13.2565 0.131696 13.5745 0.366116 13.8089C0.600537 14.0433 0.918479 14.175 1.25 14.175H1.25833C1.58985 14.175 1.9078 14.0433 2.14222 13.8089C2.37664 13.5745 2.50833 13.2565 2.50833 12.925V12.9167C2.50833 12.5851 2.37664 12.2672 2.14222 12.0328C1.9078 11.7984 1.58985 11.6667 1.25833 11.6667H1.25Z" fill="#010101"/>
</svg>
