<svg width="30" height="30" viewBox="0 0 30 30" fill="none" xmlns="http://www.w3.org/2000/svg">
<path d="M20.596 3.75515C20.8048 3.7739 20.896 4.0289 20.746 4.17765L10.346 14.5777C10.2285 14.6952 10.1444 14.8419 10.1023 15.0027L8.85228 19.7902C8.81102 19.9484 8.81185 20.1146 8.8547 20.2724C8.89754 20.4302 8.98091 20.574 9.09652 20.6897C9.21214 20.8053 9.35598 20.8886 9.51377 20.9315C9.67157 20.9743 9.83782 20.9752 9.99603 20.9339L14.7823 19.6839C14.9432 19.6414 15.0899 19.5568 15.2073 19.4389L25.7548 8.8914C25.7878 8.85753 25.8298 8.83381 25.8759 8.82307C25.9219 8.81233 25.9701 8.815 26.0147 8.83079C26.0592 8.84657 26.0984 8.87479 26.1274 8.91212C26.1565 8.94944 26.1742 8.99431 26.1785 9.0414C26.6176 13.2284 26.5924 17.4512 26.1035 21.6327C25.8248 24.0139 23.911 25.8827 21.5385 26.1489C17.1931 26.6303 12.8077 26.6303 8.46228 26.1489C6.08853 25.8827 4.17478 24.0139 3.89603 21.6327C3.38101 17.2264 3.38101 12.7752 3.89603 8.36891C4.17478 5.9864 6.08853 4.11765 8.46228 3.85265C12.4929 3.40587 16.5587 3.3732 20.596 3.75515Z" fill="#001871"/>
<path d="M22.2789 5.2964C22.3079 5.2673 22.3424 5.24421 22.3804 5.22845C22.4183 5.2127 22.459 5.20459 22.5002 5.20459C22.5413 5.20459 22.582 5.2127 22.6199 5.22845C22.6579 5.24421 22.6924 5.2673 22.7214 5.2964L24.4889 7.06515C24.5473 7.12373 24.5801 7.20306 24.5801 7.28577C24.5801 7.36848 24.5473 7.44782 24.4889 7.5064L14.1227 17.8751C14.0832 17.9144 14.034 17.9425 13.9802 17.9564L11.5877 18.5814C11.5349 18.5952 11.4795 18.5949 11.4269 18.5806C11.3743 18.5663 11.3264 18.5385 11.2878 18.5C11.2493 18.4614 11.2215 18.4135 11.2072 18.3609C11.1929 18.3083 11.1926 18.2529 11.2064 18.2001L11.8314 15.8076C11.8453 15.7538 11.8734 15.7046 11.9127 15.6651L22.2789 5.2964Z" fill="#001871"/>
</svg>
