<svg width="21" height="21" viewBox="0 0 21 21" fill="none" xmlns="http://www.w3.org/2000/svg">
<path d="M10.5 20.5C16.0228 20.5 20.5 16.0228 20.5 10.5C20.5 4.97715 16.0228 0.5 10.5 0.5C4.97715 0.5 0.5 4.97715 0.5 10.5C0.5 16.0228 4.97715 20.5 10.5 20.5Z" stroke="#767676" stroke-linecap="round" stroke-linejoin="round"/>
<path d="M6.49609 13.7212C7.40821 14.9356 8.86039 15.7212 10.4961 15.7212C12.1318 15.7212 13.584 14.9356 14.4961 13.7212" stroke="#767676" stroke-linecap="round" stroke-linejoin="round"/>
<path d="M6.50506 7.72119H6.49609M14.4961 7.72119H14.4871" stroke="#767676" stroke-linecap="round" stroke-linejoin="round"/>
<path d="M6.49609 13.7222C7.40821 14.9366 8.86039 15.7222 10.4961 15.7222C12.1318 15.7222 13.584 14.9366 14.4961 13.7222" stroke="#767676" stroke-linecap="round" stroke-linejoin="round"/>
<path d="M6.50506 7.72217H6.49609M14.4961 7.72217H14.4871" stroke="#767676" stroke-linecap="round" stroke-linejoin="round"/>
</svg>
