<svg width="16" height="16" viewBox="0 0 16 16" fill="none" xmlns="http://www.w3.org/2000/svg">
<path d="M12.0001 1.33331C12.3537 1.33331 12.6928 1.47379 12.9429 1.72384C13.1929 1.97389 13.3334 2.31302 13.3334 2.66665V13.3333C13.3334 13.6869 13.1929 14.0261 12.9429 14.2761C12.6928 14.5262 12.3537 14.6666 12.0001 14.6666H4.00008C3.64646 14.6666 3.30732 14.5262 3.05727 14.2761C2.80722 14.0261 2.66675 13.6869 2.66675 13.3333V2.66665C2.66675 2.31302 2.80722 1.97389 3.05727 1.72384C3.30732 1.47379 3.64646 1.33331 4.00008 1.33331H12.0001ZM8.00008 8.66665H6.00008C5.82327 8.66665 5.6537 8.73688 5.52868 8.86191C5.40365 8.98693 5.33341 9.1565 5.33341 9.33331C5.33341 9.51012 5.40365 9.67969 5.52868 9.80472C5.6537 9.92974 5.82327 9.99998 6.00008 9.99998H8.00008C8.17689 9.99998 8.34646 9.92974 8.47149 9.80472C8.59651 9.67969 8.66675 9.51012 8.66675 9.33331C8.66675 9.1565 8.59651 8.98693 8.47149 8.86191C8.34646 8.73688 8.17689 8.66665 8.00008 8.66665ZM10.0001 5.33331H6.00008C5.83016 5.3335 5.66673 5.39857 5.54317 5.51521C5.41961 5.63186 5.34526 5.79128 5.3353 5.96091C5.32534 6.13054 5.38053 6.29757 5.48959 6.42787C5.59865 6.55817 5.75335 6.64191 5.92208 6.66198L6.00008 6.66665H10.0001C10.17 6.66646 10.3334 6.60139 10.457 6.48475C10.5806 6.3681 10.6549 6.20868 10.6649 6.03905C10.6748 5.86942 10.6196 5.70239 10.5106 5.57209C10.4015 5.44179 10.2468 5.35805 10.0781 5.33798L10.0001 5.33331Z" fill="#001871"/>
</svg>
