<svg width="16" height="16" viewBox="0 0 16 16" fill="none" xmlns="http://www.w3.org/2000/svg">
<path fill-rule="evenodd" clip-rule="evenodd" d="M4.84534 3.1053C6.94473 2.92299 9.05596 2.92299 11.1553 3.1053L12.162 3.1933C12.6299 3.23428 13.0705 3.43145 13.4128 3.75309C13.7551 4.07473 13.9793 4.50216 14.0493 4.96664C14.3517 6.97756 14.3517 9.02239 14.0493 11.0333C14.0222 11.2097 13.9751 11.3773 13.908 11.536C13.864 11.6406 13.728 11.6566 13.6507 11.5726L10.7033 8.32997C10.6382 8.25829 10.5536 8.20708 10.4598 8.18258C10.3661 8.15808 10.2673 8.16135 10.1753 8.19197L8.48801 8.75464L6.04068 6.0013C5.99541 5.95037 5.94021 5.90923 5.87846 5.8804C5.81671 5.85158 5.74973 5.83568 5.68161 5.83368C5.6135 5.83168 5.5457 5.84363 5.48237 5.86879C5.41904 5.89394 5.36152 5.93178 5.31334 5.97997L2.03734 9.25597C2.01509 9.27885 1.98664 9.29473 1.95549 9.30168C1.92434 9.30862 1.89184 9.30633 1.86197 9.29508C1.83211 9.28382 1.80617 9.2641 1.78735 9.23833C1.76853 9.21255 1.75764 9.18185 1.75601 9.14997C1.67717 7.75232 1.7424 6.35026 1.95068 4.96597C2.02069 4.5015 2.24489 4.07407 2.58721 3.75242C2.92953 3.43078 3.37008 3.23361 3.83801 3.19264L4.84534 3.1053ZM9.33334 5.99997C9.33334 5.73475 9.4387 5.4804 9.62624 5.29286C9.81377 5.10533 10.0681 4.99997 10.3333 4.99997C10.5986 4.99997 10.8529 5.10533 11.0405 5.29286C11.228 5.4804 11.3333 5.73475 11.3333 5.99997C11.3333 6.26519 11.228 6.51954 11.0405 6.70708C10.8529 6.89461 10.5986 6.99997 10.3333 6.99997C10.0681 6.99997 9.81377 6.89461 9.62624 6.70708C9.4387 6.51954 9.33334 6.26519 9.33334 5.99997Z" fill="#001871"/>
<path d="M1.97401 10.7333C1.956 10.7515 1.94243 10.7736 1.93433 10.7979C1.92624 10.8222 1.92385 10.848 1.92734 10.8733L1.95067 11.0333C2.02069 11.4978 2.24488 11.9252 2.5872 12.2469C2.92952 12.5685 3.37008 12.7657 3.83801 12.8067L4.84467 12.894C6.94467 13.0767 9.05534 13.0767 11.1553 12.894L12.162 12.8067C12.4382 12.7833 12.7068 12.7047 12.952 12.5753C13.0433 12.528 13.0587 12.4073 12.9893 12.3313L10.256 9.32468C10.2343 9.30054 10.206 9.28327 10.1746 9.27498C10.1433 9.26669 10.1101 9.26774 10.0793 9.27801L8.49134 9.80735C8.3985 9.83835 8.2986 9.84142 8.20403 9.81617C8.10946 9.79093 8.02438 9.73849 7.95934 9.66535L5.76267 7.19401C5.74755 7.17703 5.72911 7.16332 5.70849 7.15373C5.68788 7.14414 5.66551 7.13887 5.64278 7.13825C5.62005 7.13762 5.59743 7.14166 5.57632 7.1501C5.5552 7.15854 5.53604 7.17122 5.52001 7.18735L1.97401 10.7333Z" fill="#001871"/>
</svg>
