<svg width="24" height="24" viewBox="0 0 24 24" fill="none" xmlns="http://www.w3.org/2000/svg">
<path d="M14.9796 12.2021L16.3427 10.839C16.4419 11.21 16.5 11.598 16.5 12C16.5 14.4814 14.4814 16.5 12 16.5C11.598 16.5 11.2101 16.4419 10.839 16.3427L12.2021 14.9795C13.6926 14.8779 14.8779 13.6925 14.9796 12.2021ZM23.9055 11.6357C23.8132 11.4697 22.5049 9.17717 19.9474 7.2343L18.8559 8.32574C20.7208 9.69692 21.9024 11.2961 22.3676 12.0011C21.4787 13.3547 17.9916 18 12 18C11.1015 18 10.266 17.885 9.47981 17.7017L8.24738 18.9341C9.38044 19.2815 10.6258 19.5 12 19.5C19.8512 19.5 23.7437 12.6555 23.9055 12.3643C24.0315 12.1376 24.0315 11.8624 23.9055 11.6357ZM20.7803 4.28024L4.28025 20.7802C4.13381 20.9267 3.94181 21 3.75 21C3.55819 21 3.36619 20.9267 3.21975 20.7802C2.92669 20.4872 2.92669 20.0126 3.21975 19.7197L5.319 17.6205C1.92525 15.5717 0.200812 12.5557 0.0945 12.3643C-0.0315 12.1376 -0.0315 11.8622 0.0945 11.6355C0.256312 11.3445 4.14881 4.49999 12 4.49999C14.0301 4.49999 15.7884 4.96311 17.2916 5.64786L19.7197 3.21974C20.0128 2.92667 20.4874 2.92667 20.7803 3.21974C21.0731 3.5128 21.0733 3.98736 20.7803 4.28024ZM6.43744 16.502L8.33625 14.6032C7.81181 13.8675 7.5 12.9703 7.5 12C7.5 9.51861 9.51863 7.49999 12 7.49999C12.9703 7.49999 13.8675 7.8118 14.6033 8.33605L16.1387 6.80061C14.9256 6.3148 13.5471 5.99999 12 5.99999C6.00844 5.99999 2.52131 10.6453 1.63256 11.9989C2.19694 12.8542 3.81919 15.0195 6.43744 16.502ZM9.42506 13.5142L13.5142 9.42505C13.0682 9.16161 12.5546 8.99999 12 8.99999C10.3459 8.99999 9 10.3459 9 12C9 12.5546 9.16162 13.0682 9.42506 13.5142Z" fill="black"/>
</svg>
