<svg width="198" height="36" viewBox="0 0 198 36" fill="none" xmlns="http://www.w3.org/2000/svg">
<path d="M17.7627 3.15918C17.8375 2.92885 18.1625 2.92886 18.2373 3.15918L21.1035 11.9785C21.3378 12.6995 22.0095 13.1874 22.7676 13.1875H32.041C32.2831 13.1875 32.384 13.4972 32.1885 13.6396L24.6855 19.0908C24.0725 19.5364 23.8158 20.3261 24.0498 21.0469L26.916 29.8672C26.9906 30.0974 26.7271 30.2887 26.5312 30.1465L19.0283 24.6953C18.4151 24.25 17.5849 24.25 16.9717 24.6953L9.46875 30.1465C9.27289 30.2887 9.0094 30.0974 9.08398 29.8672L11.9502 21.0469C12.1842 20.3261 11.9275 19.5364 11.3145 19.0908L3.81152 13.6396C3.61596 13.4972 3.71692 13.1875 3.95898 13.1875H13.2324C13.9905 13.1874 14.6622 12.6995 14.8965 11.9785L17.7627 3.15918Z" stroke="#001871" stroke-width="1.5"/>
<path d="M58.2627 3.15918C58.3375 2.92885 58.6625 2.92886 58.7373 3.15918L61.6035 11.9785C61.8378 12.6995 62.5095 13.1874 63.2676 13.1875H72.541C72.7831 13.1875 72.884 13.4972 72.6885 13.6396L65.1855 19.0908C64.5725 19.5364 64.3158 20.3261 64.5498 21.0469L67.416 29.8672C67.4906 30.0974 67.2271 30.2887 67.0312 30.1465L59.5283 24.6953C58.9151 24.25 58.0849 24.25 57.4717 24.6953L49.9688 30.1465C49.7729 30.2887 49.5094 30.0974 49.584 29.8672L52.4502 21.0469C52.6842 20.3261 52.4275 19.5364 51.8145 19.0908L44.3115 13.6396C44.116 13.4972 44.2169 13.1875 44.459 13.1875H53.7324C54.4905 13.1874 55.1622 12.6995 55.3965 11.9785L58.2627 3.15918Z" stroke="#001871" stroke-width="1.5"/>
<path d="M98.7627 3.15918C98.8375 2.92885 99.1625 2.92886 99.2373 3.15918L102.104 11.9785C102.338 12.6995 103.01 13.1874 103.768 13.1875H113.041C113.283 13.1875 113.384 13.4972 113.188 13.6396L105.686 19.0908C105.072 19.5364 104.816 20.3261 105.05 21.0469L107.916 29.8672C107.991 30.0974 107.727 30.2887 107.531 30.1465L100.028 24.6953C99.4151 24.25 98.5849 24.25 97.9717 24.6953L90.4688 30.1465C90.2729 30.2887 90.0094 30.0974 90.084 29.8672L92.9502 21.0469C93.1842 20.3261 92.9275 19.5364 92.3145 19.0908L84.8115 13.6396C84.616 13.4972 84.7169 13.1875 84.959 13.1875H94.2324C94.9905 13.1874 95.6622 12.6995 95.8965 11.9785L98.7627 3.15918Z" stroke="#001871" stroke-width="1.5"/>
<path d="M139.263 3.15918C139.338 2.92885 139.662 2.92886 139.737 3.15918L142.604 11.9785C142.838 12.6995 143.51 13.1874 144.268 13.1875H153.541C153.783 13.1875 153.884 13.4972 153.688 13.6396L146.186 19.0908C145.572 19.5364 145.316 20.3261 145.55 21.0469L148.416 29.8672C148.491 30.0974 148.227 30.2887 148.031 30.1465L140.528 24.6953C139.915 24.25 139.085 24.25 138.472 24.6953L130.969 30.1465C130.773 30.2887 130.509 30.0974 130.584 29.8672L133.45 21.0469C133.684 20.3261 133.428 19.5364 132.814 19.0908L125.312 13.6396C125.116 13.4972 125.217 13.1875 125.459 13.1875H134.732C135.49 13.1874 136.162 12.6995 136.396 11.9785L139.263 3.15918Z" stroke="#001871" stroke-width="1.5"/>
<path d="M179.763 3.15918C179.838 2.92885 180.162 2.92886 180.237 3.15918L183.104 11.9785C183.338 12.6995 184.01 13.1874 184.768 13.1875H194.041C194.283 13.1875 194.384 13.4972 194.188 13.6396L186.686 19.0908C186.072 19.5364 185.816 20.3261 186.05 21.0469L188.916 29.8672C188.991 30.0974 188.727 30.2887 188.531 30.1465L181.028 24.6953C180.415 24.25 179.585 24.25 178.972 24.6953L171.469 30.1465C171.273 30.2887 171.009 30.0974 171.084 29.8672L173.95 21.0469C174.184 20.3261 173.928 19.5364 173.314 19.0908L165.812 13.6396C165.616 13.4972 165.717 13.1875 165.959 13.1875H175.232C175.99 13.1874 176.662 12.6995 176.896 11.9785L179.763 3.15918Z" stroke="#001871" stroke-width="1.5"/>
</svg>
