<svg width="20" height="20" viewBox="0 0 20 20" fill="none" xmlns="http://www.w3.org/2000/svg">
<g clip-path="url(#clip0_2468_2348)">
<path fill-rule="evenodd" clip-rule="evenodd" d="M4.16248 2.05004C3.82248 2.71879 3.76498 3.56254 3.75623 5.03754C4.36998 5.00379 5.09373 5.00379 5.95623 5.00379H10.3062C11.3125 5.00379 12.1437 5.00379 12.8187 5.05879C13.5212 5.11629 14.1687 5.23879 14.7687 5.54879C15.1662 5.75212 15.5287 6.00212 15.8562 6.29879C16.015 6.36129 16.1412 6.48879 16.205 6.64879C16.5008 6.97462 16.7508 7.33712 16.955 7.73629C17.2637 8.34129 17.3875 8.98629 17.445 9.68629C17.5 10.3613 17.5 11.1988 17.5 12.1988V13.5238C17.6564 13.4783 17.8079 13.4176 17.9525 13.3425C18.6564 12.9817 19.2292 12.4089 19.59 11.705C20 10.9025 20 9.85504 20 7.75504V6.00504C20 3.90504 20 2.85504 19.5912 2.05504C19.2304 1.35113 18.6576 0.778337 17.9537 0.417539C17.1512 0.00878906 16.1037 0.00878906 14.0037 0.00878906H9.75373C7.65373 0.00878906 6.60373 0.00878906 5.80373 0.417539C5.09982 0.778337 4.52702 1.35113 4.16623 2.05504L4.16248 2.05004ZM8.12498 2.50254C7.95922 2.50254 7.80024 2.56839 7.68303 2.6856C7.56582 2.80281 7.49998 2.96178 7.49998 3.12754C7.49998 3.2933 7.56582 3.45227 7.68303 3.56948C7.80024 3.68669 7.95922 3.75254 8.12498 3.75254H15.625C15.7907 3.75254 15.9497 3.68669 16.0669 3.56948C16.1841 3.45227 16.25 3.2933 16.25 3.12754C16.25 2.96178 16.1841 2.80281 16.0669 2.6856C15.9497 2.56839 15.7907 2.50254 15.625 2.50254H8.12498Z" fill="#001871"/>
<mask id="mask0_2468_2348" style="mask-type:luminance" maskUnits="userSpaceOnUse" x="0" y="6" width="17" height="14">
<path d="M3.75 10.625C3.75 10.4592 3.81585 10.3003 3.93306 10.1831C4.05027 10.0658 4.20924 10 4.375 10H11.875C12.0408 10 12.1997 10.0658 12.3169 10.1831C12.4342 10.3003 12.5 10.4592 12.5 10.625C12.5 10.7908 12.4342 10.9497 12.3169 11.0669C12.1997 11.1842 12.0408 11.25 11.875 11.25H4.375C4.20924 11.25 4.05027 11.1842 3.93306 11.0669C3.81585 10.9497 3.75 10.7908 3.75 10.625ZM3.75 13.125C3.75 12.9592 3.81585 12.8003 3.93306 12.6831C4.05027 12.5658 4.20924 12.5 4.375 12.5H11.875C12.0408 12.5 12.1997 12.5658 12.3169 12.6831C12.4342 12.8003 12.5 12.9592 12.5 13.125C12.5 13.2908 12.4342 13.4497 12.3169 13.5669C12.1997 13.6842 12.0408 13.75 11.875 13.75H4.375C4.20924 13.75 4.05027 13.6842 3.93306 13.5669C3.81585 13.4497 3.75 13.2908 3.75 13.125ZM3.75 15.625C3.75 15.4592 3.81585 15.3003 3.93306 15.1831C4.05027 15.0658 4.20924 15 4.375 15H8.125C8.29076 15 8.44973 15.0658 8.56694 15.1831C8.68415 15.3003 8.75 15.4592 8.75 15.625C8.75 15.7908 8.68415 15.9497 8.56694 16.0669C8.44973 16.1842 8.29076 16.25 8.125 16.25H4.375C4.20924 16.25 4.05027 16.1842 3.93306 16.0669C3.81585 15.9497 3.75 15.7908 3.75 15.625Z" fill="white"/>
<path fill-rule="evenodd" clip-rule="evenodd" d="M0.40875 8.30016C0 9.10266 0 10.1502 0 12.2502V14.0002C0 16.1002 0 17.1502 0.40875 17.9502C0.769548 18.6541 1.34234 19.2269 2.04625 19.5877C2.84875 19.9964 3.89625 19.9964 5.99625 19.9964H10.2462C12.3462 19.9964 13.3963 19.9964 14.1963 19.5877C14.9012 19.2282 15.4743 18.6551 15.8337 17.9502C16.2425 17.1477 16.2425 16.1002 16.2425 14.0002V12.2502C16.2425 10.1502 16.2425 9.10016 15.8337 8.30016C15.4743 7.59523 14.9012 7.02206 14.1963 6.66266C13.3938 6.25391 12.3462 6.25391 10.2462 6.25391H5.99625C3.89625 6.25391 2.84625 6.25391 2.04625 6.66266C1.34234 7.02345 0.769548 7.59625 0.40875 8.30016ZM1.25 12.2502C1.25 11.1789 1.25 10.4502 1.2975 9.88766C1.34125 9.34016 1.4225 9.05891 1.5225 8.86391C1.7625 8.39391 2.145 8.01141 2.615 7.77141C2.81 7.67141 3.09 7.59016 3.63875 7.54641C4.20125 7.50016 4.92625 7.49891 6.00125 7.49891H10.2513C11.3225 7.49891 12.0512 7.50016 12.6137 7.54641C13.1612 7.59141 13.4425 7.67266 13.6375 7.77141C14.1075 8.01141 14.49 8.39391 14.73 8.86391C14.83 9.05891 14.9113 9.34016 14.955 9.88766C15 10.4502 15 11.1752 15 12.2502V14.0002C15 15.0714 15 15.8002 14.9538 16.3627C14.9088 16.9102 14.8275 17.1914 14.7288 17.3864C14.4891 17.8568 14.1066 18.2392 13.6363 18.4789C13.4413 18.5789 13.16 18.6602 12.6112 18.7039C12.0487 18.7502 11.3238 18.7514 10.2488 18.7514H6C4.93 18.7514 4.2 18.7502 3.6375 18.7039C3.09125 18.6589 2.81 18.5777 2.615 18.4789C2.14462 18.2392 1.76218 17.8568 1.5225 17.3864C1.4225 17.1914 1.34125 16.9102 1.2975 16.3627C1.25 15.8002 1.25 15.0752 1.25 14.0002V12.2502Z" fill="white"/>
</mask>
<g mask="url(#mask0_2468_2348)">
<path d="M0.0487794 9.78756C-0.00122058 10.4126 -0.0012207 11.2001 -0.0012207 12.2501H2.49878C2.49878 11.1576 2.49878 10.4876 2.54003 9.98756L0.0525295 9.78381L0.0487794 9.78756ZM0.406279 8.30006C0.201279 8.70131 0.100029 9.16506 0.0487794 9.78756L2.53628 9.99131C2.55503 9.75756 2.58003 9.61631 2.59878 9.53131L2.62128 9.45256L2.63003 9.43256L0.405029 8.29756L0.406279 8.30006ZM2.04378 6.66256C1.33987 7.02336 0.767077 7.59615 0.406279 8.30006L2.63128 9.43506C2.75128 9.20006 2.94253 9.00881 3.17753 8.88881L2.04253 6.66381L2.04378 6.66256ZM3.53128 6.30506C2.90628 6.35506 2.44378 6.45756 2.04378 6.66256L3.17878 8.88756L3.19753 8.88006C3.21086 8.87506 3.23753 8.86756 3.27753 8.85756C3.36128 8.83756 3.50253 8.81256 3.73753 8.79506L3.53378 6.30756L3.53128 6.30506ZM5.99378 6.25506C4.94378 6.25506 4.15628 6.25506 3.53128 6.30506L3.73503 8.79256C4.23503 8.75131 4.90253 8.75006 5.99753 8.75006V6.25006L5.99378 6.25506ZM10.2438 6.25506H5.99378V8.75506H10.2438V6.25506ZM12.7063 6.30506C12.0813 6.25506 11.2938 6.25506 10.2438 6.25506V8.75506C11.3363 8.75506 12.0063 8.75506 12.5063 8.79631L12.71 6.30881L12.7063 6.30506ZM14.1938 6.66256C13.7925 6.45756 13.3288 6.35631 12.7063 6.30506L12.5025 8.79256C12.7363 8.81131 12.8775 8.83631 12.9625 8.85506L13.0413 8.87756L13.0613 8.88631L14.1963 6.66131L14.1938 6.66256ZM15.8313 8.30006C15.4719 7.59514 14.8987 7.02196 14.1938 6.66256L13.0588 8.88756C13.2938 9.00756 13.485 9.19881 13.605 9.43381L15.8313 8.30006ZM16.1888 9.78756C16.1388 9.16256 16.0363 8.70006 15.8313 8.30006L13.6063 9.43506L13.6138 9.45381C13.6188 9.46631 13.6263 9.49298 13.6363 9.53381C13.6563 9.61756 13.68 9.75881 13.6988 9.99381L16.1863 9.79006L16.1888 9.78756ZM16.2388 12.2501C16.2388 11.2001 16.2388 10.4126 16.1888 9.78756L13.7013 9.99131C13.7425 10.4913 13.7438 11.1588 13.7438 12.2538H16.2438L16.2388 12.2501ZM16.2388 14.0001V12.2501H13.7388V14.0001H16.2388ZM16.1888 16.4626C16.2388 15.8376 16.2388 15.0501 16.2388 14.0001H13.7388C13.7388 15.0926 13.7388 15.7626 13.6975 16.2626L16.185 16.4663L16.1888 16.4626ZM15.8313 17.9501C16.0363 17.5488 16.1375 17.0851 16.1888 16.4626L13.7013 16.2588C13.69 16.4133 13.6691 16.5669 13.6388 16.7188L13.6163 16.7976L13.6075 16.8176L15.8325 17.9526L15.8313 17.9501ZM14.1938 19.5876C14.8987 19.2282 15.4719 18.655 15.8313 17.9501L13.6063 16.8151C13.4864 17.0503 13.2952 17.2415 13.06 17.3613L14.1938 19.5876ZM12.7063 19.9451C13.3313 19.8951 13.7938 19.7926 14.1938 19.5876L13.0588 17.3626L13.04 17.3701L12.96 17.3926C12.8081 17.4229 12.6545 17.4437 12.5 17.4551L12.7038 19.9426L12.7063 19.9451ZM10.2438 19.9951C11.2938 19.9951 12.0813 19.9951 12.7063 19.9451L12.5025 17.4576C12.0025 17.4988 11.335 17.5001 10.24 17.5001V20.0001L10.2438 19.9951ZM5.99378 19.9951H10.2438V17.4951H5.99378V19.9951ZM3.53128 19.9451C4.15628 19.9951 4.94378 19.9951 5.99378 19.9951V17.4951C4.90128 17.4951 4.23128 17.4951 3.73128 17.4538L3.52753 19.9413L3.53128 19.9451ZM2.04378 19.5876C2.44503 19.7926 2.90878 19.8938 3.53128 19.9451L3.73503 17.4576C3.58055 17.4462 3.42692 17.4254 3.27503 17.3951L3.19628 17.3726L3.17628 17.3638L2.04128 19.5888L2.04378 19.5876ZM0.406279 17.9501C0.767077 18.654 1.33987 19.2268 2.04378 19.5876L3.17878 17.3626C2.94359 17.2427 2.75237 17.0515 2.63253 16.8163L0.407529 17.9513L0.406279 17.9501ZM0.0487794 16.4626C0.0987794 17.0876 0.201279 17.5501 0.406279 17.9501L2.63128 16.8151L2.62378 16.7963L2.60128 16.7163C2.57097 16.5644 2.55009 16.4108 2.53878 16.2563L0.0512793 16.4601L0.0487794 16.4626ZM-0.0012207 14.0001C-0.0012207 15.0501 -0.00122058 15.8376 0.0487794 16.4626L2.53628 16.2588C2.49503 15.7588 2.49378 15.0913 2.49378 13.9963H-0.00622058L-0.0012207 14.0001ZM-0.0012207 12.2501V14.0001H2.49878V12.2501H-0.0012207ZM1.24878 12.2501C1.24878 11.1788 1.24878 10.4501 1.29503 9.88756C1.34003 9.34006 1.42003 9.05881 1.52003 8.86381L-0.704971 7.72881C-1.01372 8.33506 -1.13747 8.97881 -1.19497 9.67881C-1.25122 10.3663 -1.24997 11.2163 -1.24997 12.2413H1.25003L1.24878 12.2501ZM1.24878 14.0001V12.2501H-1.25122V14.0001H1.24878ZM1.52003 17.3876C1.42003 17.1926 1.33878 16.9113 1.29503 16.3638C1.25003 15.8013 1.25003 15.0763 1.25003 14.0013H-1.24997C-1.24997 15.0313 -1.25122 15.8763 -1.19497 16.5638C-1.13747 17.2663 -1.01497 17.9138 -0.704971 18.5138L1.52003 17.3788V17.3876ZM2.61253 18.4801C2.14215 18.2404 1.75971 17.8579 1.52003 17.3876L-0.704971 18.5226C-0.226221 19.4638 0.538779 20.2226 1.48253 20.7101L2.61753 18.4851L2.61253 18.4801ZM6.00003 18.7526C4.92878 18.7526 4.20003 18.7526 3.63753 18.7051C3.09003 18.6613 2.80753 18.5801 2.61253 18.4801L1.47878 20.7051C2.08503 21.0138 2.72878 21.1376 3.42878 21.1951C4.11628 21.2513 4.96628 21.2513 5.99128 21.2513V18.7513L6.00003 18.7526ZM10.25 18.7526H6.00003V21.2526H10.25V18.7526ZM13.6375 18.4801C13.4425 18.5801 13.1625 18.6613 12.6138 18.7051C12.0513 18.7513 11.3263 18.7526 10.2513 18.7526V21.2526C11.2813 21.2526 12.1263 21.2526 12.8138 21.1963C13.5163 21.1388 14.1638 21.0163 14.7638 20.7063L13.6288 18.4813L13.6375 18.4801ZM14.73 17.3876C14.4904 17.8579 14.1079 18.2404 13.6375 18.4801L14.7725 20.7051C15.7131 20.2234 16.4783 19.4581 16.96 18.5176L14.735 17.3826L14.73 17.3876ZM15.0025 14.0001C15.0025 15.0713 15.0025 15.8001 14.955 16.3626C14.9113 16.9101 14.83 17.1926 14.73 17.3876L16.955 18.5213C17.265 17.9151 17.3888 17.2713 17.4463 16.5713C17.5013 15.8838 17.5013 15.0338 17.5013 14.0088H15.0013L15.0025 14.0001ZM15.0025 12.2501V14.0001H17.5025V12.2501H15.0025ZM14.73 8.86256C14.83 9.05756 14.9113 9.33881 14.955 9.88631C15.0013 10.4488 15.0025 11.1738 15.0025 12.2488H17.5025C17.5025 11.2188 17.5025 10.3738 17.4463 9.68631C17.39 8.98381 17.2663 8.33631 16.9563 7.73631L14.7313 8.87131L14.73 8.86256ZM13.6375 7.77006C14.1075 8.01006 14.49 8.39256 14.73 8.86256L16.955 7.72756C16.4733 6.787 15.7081 6.02174 14.7675 5.54006L13.6325 7.76506L13.6375 7.77006ZM10.25 7.49756C11.3213 7.49756 12.05 7.49756 12.6125 7.54506C13.16 7.58881 13.4413 7.67006 13.6375 7.77006L14.7713 5.54506C14.165 5.23631 13.5213 5.11256 12.8213 5.05506C12.1338 4.99881 11.2838 4.99881 10.2588 4.99881V7.49881L10.25 7.49756ZM6.00003 7.49756H10.25V4.99756H6.00003V7.49756ZM2.61253 7.77006C2.80753 7.67006 3.08878 7.58881 3.63753 7.54506C4.20003 7.49881 4.92503 7.49756 6.00003 7.49756V4.99756C4.96878 4.99756 4.12503 4.99756 3.43753 5.05381C2.73378 5.11006 2.08753 5.23381 1.48753 5.54381L2.62128 7.76881L2.61253 7.77006ZM1.52003 8.86381C1.76003 8.39381 2.14253 8.01006 2.61253 7.77006L1.47753 5.54506C0.536974 6.02674 -0.22829 6.792 -0.709971 7.73256L1.51503 8.86756L1.52003 8.86381ZM4.37003 8.74756C4.1238 8.74756 3.87998 8.79606 3.6525 8.89028C3.42501 8.98451 3.21831 9.12262 3.0442 9.29673C2.87009 9.47084 2.73198 9.67754 2.63776 9.90503C2.54353 10.1325 2.49503 10.3763 2.49503 10.6226H4.99503C4.99503 10.7883 4.92918 10.9473 4.81197 11.0645C4.69476 11.1817 4.53579 11.2476 4.37003 11.2476V8.74756ZM11.87 8.74756H4.37003V11.2476H11.87V8.74756ZM13.745 10.6226C13.745 10.1253 13.5475 9.64836 13.1959 9.29673C12.8442 8.9451 12.3673 8.74756 11.87 8.74756V11.2476C11.7043 11.2476 11.5453 11.1817 11.4281 11.0645C11.3109 10.9473 11.245 10.7883 11.245 10.6226H13.745ZM11.87 12.4976C12.3673 12.4976 12.8442 12.3 13.1959 11.9484C13.5475 11.5968 13.745 11.1198 13.745 10.6226H11.245C11.245 10.4568 11.3109 10.2978 11.4281 10.1806C11.5453 10.0634 11.7043 9.99756 11.87 9.99756V12.4976ZM4.37003 12.4976H11.87V9.99756H4.37003V12.4976ZM2.49503 10.6226C2.49503 11.1198 2.69257 11.5968 3.0442 11.9484C3.39583 12.3 3.87275 12.4976 4.37003 12.4976V9.99756C4.53579 9.99756 4.69476 10.0634 4.81197 10.1806C4.92918 10.2978 4.99503 10.4568 4.99503 10.6226H2.49503ZM4.37003 11.2476C3.87275 11.2476 3.39583 11.4451 3.0442 11.7967C2.69257 12.1484 2.49503 12.6253 2.49503 13.1226H4.99503C4.99503 13.2883 4.92918 13.4473 4.81197 13.5645C4.69476 13.6817 4.53579 13.7476 4.37003 13.7476V11.2476ZM11.87 11.2476H4.37003V13.7476H11.87V11.2476ZM13.745 13.1226C13.745 12.6253 13.5475 12.1484 13.1959 11.7967C12.8442 11.4451 12.3673 11.2476 11.87 11.2476V13.7476C11.7043 13.7476 11.5453 13.6817 11.4281 13.5645C11.3109 13.4473 11.245 13.2883 11.245 13.1226H13.745ZM11.87 14.9976C12.3673 14.9976 12.8442 14.8 13.1959 14.4484C13.5475 14.0968 13.745 13.6198 13.745 13.1226H11.245C11.245 12.9568 11.3109 12.7978 11.4281 12.6806C11.5453 12.5634 11.7043 12.4976 11.87 12.4976V14.9976ZM4.37003 14.9976H11.87V12.4976H4.37003V14.9976ZM2.49503 13.1226C2.49503 13.6198 2.69257 14.0968 3.0442 14.4484C3.39583 14.8 3.87275 14.9976 4.37003 14.9976V12.4976C4.53579 12.4976 4.69476 12.5634 4.81197 12.6806C4.92918 12.7978 4.99503 12.9568 4.99503 13.1226H2.49503ZM4.37003 13.7476C3.87275 13.7476 3.39583 13.9451 3.0442 14.2967C2.69257 14.6484 2.49503 15.1253 2.49503 15.6226H4.99503C4.99503 15.7883 4.92918 15.9473 4.81197 16.0645C4.69476 16.1817 4.53579 16.2476 4.37003 16.2476V13.7476ZM8.12003 13.7476H4.37003V16.2476H8.12003V13.7476ZM9.99503 15.6226C9.99503 15.1253 9.79749 14.6484 9.44585 14.2967C9.09422 13.9451 8.61731 13.7476 8.12003 13.7476V16.2476C7.95427 16.2476 7.7953 16.1817 7.67809 16.0645C7.56088 15.9473 7.49503 15.7883 7.49503 15.6226H9.99503ZM8.12003 17.4976C8.61731 17.4976 9.09422 17.3 9.44585 16.9484C9.79749 16.5968 9.99503 16.1198 9.99503 15.6226H7.49503C7.49503 15.4568 7.56088 15.2978 7.67809 15.1806C7.7953 15.0634 7.95427 14.9976 8.12003 14.9976V17.4976ZM4.37003 17.4976H8.12003V14.9976H4.37003V17.4976ZM2.49503 15.6226C2.49503 16.1198 2.69257 16.5968 3.0442 16.9484C3.39583 17.3 3.87275 17.4976 4.37003 17.4976V14.9976C4.53579 14.9976 4.69476 15.0634 4.81197 15.1806C4.92918 15.2978 4.99503 15.4568 4.99503 15.6226H2.49503Z" fill="#001871"/>
</g>
</g>
<defs>
<clipPath id="clip0_2468_2348">
<rect width="20" height="20" fill="white"/>
</clipPath>
</defs>
</svg>
