<svg width="40" height="40" viewBox="0 0 40 40" fill="none" xmlns="http://www.w3.org/2000/svg">
<path d="M28.957 33.8312L25.7457 31.5675C25.2733 30.3845 24.4865 29.3333 23.5948 28.8174C22.1498 27.9817 20.9785 28.8688 20.9785 30.7994C20.9785 32.7301 22.1498 34.9726 23.5948 35.8086C24.2799 36.2046 24.9031 36.2132 25.3694 35.9077L28.957 33.8312Z" fill="#23292E"/>
<path d="M11.5205 23.4107L8.30914 21.1471C7.83673 19.9641 7.04999 18.9128 6.15826 18.397C4.71326 17.5613 3.54199 18.4486 3.54199 20.379C3.54199 22.3096 4.71326 24.5522 6.15826 25.3882C6.84338 25.7841 7.46655 25.7927 7.93286 25.4872L11.5205 23.4107Z" fill="#23292E"/>
<path d="M39.8352 22.1605C39.8343 22.1581 39.8337 22.1556 39.8328 22.1535C39.8163 22.1076 39.776 22.0076 39.7739 22.0031C39.5853 21.5588 39.2838 21.1646 38.8913 20.8631C38.8901 20.8622 38.8889 20.8613 38.8876 20.8604L34.2105 17.1339L33.1845 13.4971C32.6779 11.7013 31.4917 10.1748 29.8785 9.24223L22.8113 5.19135C22.5177 5.02165 22.1793 5.04458 21.9196 5.20297L17.5348 7.68065L11.2262 4.03125L0.545654 10.0654C0.191345 10.5415 0 11.1194 0 11.7132V14.7862C0 15.8222 0.184937 16.8499 0.545654 17.8207L27.9373 33.6344C28.8159 34.1413 29.87 34.2456 30.8307 33.9206L31.8091 33.5891C34.6155 32.6388 37.1799 31.0928 39.3295 29.0612C39.7623 28.6524 40 28.0775 40 27.4816V23.113C40 22.7843 39.9429 22.4626 39.8352 22.1605Z" fill="#4D7EB7"/>
<path d="M39.7305 24.9979C39.7305 25.5541 39.4763 26.0797 39.0408 26.4246L38.6606 26.7255L38.3395 28.4809C36.8671 29.634 35.2634 30.6011 33.5693 31.3809L32.095 30.5235L30.9042 30.9311C30.5865 31.0399 30.2435 30.8549 30.1593 30.5293L29.3195 30.6011V29.1472C29.3195 28.2635 28.9081 27.4306 28.2071 26.8946L23.5651 23.2923L22.5043 19.5312C21.9977 17.7354 20.8115 16.2087 19.198 15.2764L12.1307 11.2255C11.6113 10.9253 10.9515 11.2268 10.8374 11.8166L10.105 15.5953L0.545654 10.0654C0.191345 10.5415 0 11.1194 0 11.7132V14.7863C0 15.8222 0.184937 16.8499 0.545654 17.8208L27.9373 33.6344C28.8159 34.1414 29.87 34.2457 30.8307 33.9206L31.8091 33.5892C34.6155 32.6388 37.1799 31.0928 39.3295 29.0613C39.7623 28.6525 40 28.0776 40 27.4816V24.8419L39.7305 24.9979Z" fill="#304E75"/>
<path d="M10.1052 15.5955L10.8376 11.8167C10.8862 11.5663 11.0336 11.3688 11.2264 11.2461V11.2452L11.2325 11.2422C11.2475 11.2327 17.535 7.68083 17.535 7.68083L11.2264 4.03174L0.545898 10.0656L10.1052 15.5955Z" fill="#7192C4"/>
<path d="M10.2983 14.6008L10.8378 11.8167C10.8864 11.5663 11.0338 11.3687 11.2266 11.2461V11.2452L11.2327 11.2419C11.2477 11.2327 16.5269 8.25048 16.5269 8.25048L11.0652 5.1001L2.45801 10.0655L10.2983 14.6008Z" fill="#243B58"/>
<path d="M11.0645 5.1001V9.51913L12.6541 10.4386L16.5262 8.25048L11.0645 5.1001Z" fill="#4D7EB7"/>
<path d="M11.0652 9.51913L6.28186 12.2864L2.45801 10.0655L11.0652 5.1001V9.51913Z" fill="#304E75"/>
<path d="M8.77484 23.4063C8.77484 25.3367 7.60358 26.224 6.15857 25.3883C4.71326 24.5524 3.54199 22.3095 3.54199 20.3792C3.54199 18.4485 4.71326 17.5612 6.15857 18.3971C7.60358 19.2331 8.77484 21.4757 8.77484 23.4063Z" fill="#3E474C"/>
<path d="M7.44501 22.6372C7.44501 23.5863 6.86914 24.0226 6.15839 23.6114C5.44794 23.2004 4.87207 22.0978 4.87207 21.1487C4.87207 20.1996 5.44794 19.7632 6.15839 20.1742C6.86914 20.5851 7.44501 21.6878 7.44501 22.6372Z" fill="#CECECE"/>
<path d="M6.85651 22.2961C6.85651 22.8108 6.54431 23.0474 6.15887 22.8245C5.77344 22.6016 5.46094 22.0035 5.46094 21.4889C5.46094 20.974 5.77344 20.7376 6.15887 20.9602C6.54401 21.1831 6.85651 21.7812 6.85651 22.2961Z" fill="#627681"/>
<path d="M26.2114 33.8266C26.2114 35.7572 25.0401 36.6446 23.5951 35.8086C22.1498 34.9726 20.9785 32.7301 20.9785 30.7994C20.9785 28.8691 22.1498 27.9817 23.5951 28.8174C25.0401 29.6534 26.2114 31.8962 26.2114 33.8266Z" fill="#3E474C"/>
<path d="M24.8806 33.0576C24.8806 34.0067 24.3047 34.443 23.5942 34.0321C22.8835 33.6211 22.3076 32.5182 22.3076 31.5691C22.3076 30.62 22.8835 30.1836 23.5942 30.5946C24.3047 31.0059 24.8806 32.1085 24.8806 33.0576Z" fill="#CECECE"/>
<path d="M24.2921 32.7169C24.2921 33.2318 23.9796 33.4685 23.5944 33.2456C23.209 33.0224 22.8965 32.4246 22.8965 31.9097C22.8965 31.3947 23.209 31.1584 23.5944 31.3813C23.9796 31.6042 24.2921 32.202 24.2921 32.7169Z" fill="#627681"/>
<path d="M34.2109 17.1338L23.5654 23.2921L32.0954 28.2746V28.2774C34.4962 27.3729 36.7188 26.0504 38.6609 24.372L34.2109 17.1338Z" fill="#7192C4"/>
<path d="M30.9041 30.9312L32.0949 30.5236V28.2749C31.5398 28.4841 30.9764 28.6736 30.4036 28.8372L29.3193 29.1473V30.6012L30.1592 30.5294C30.2434 30.855 30.5864 31.04 30.9041 30.9312Z" fill="white"/>
<path d="M39.9996 23.1133L38.6602 24.3728V26.7257L39.0404 26.4248C39.4759 26.0799 39.7301 25.5543 39.7301 24.9981L39.9996 24.8421V23.1133Z" fill="white"/>
<path d="M38.6603 26.7256V24.3727L38.6636 24.3696C36.7206 26.0492 34.4971 27.3726 32.0947 28.2777V30.5236L33.569 31.381C35.2631 30.6016 36.8668 29.6341 38.3392 28.4811L38.6603 26.7256Z" fill="#23292E"/>
<path d="M38.6603 26.7254C37.2928 27.9999 35.7092 29.0196 33.9844 29.7373L32.0947 30.5249V29.7724L33.6853 29.1337C36.6013 27.9702 38.6603 25.876 38.6603 25.876V26.7254Z" fill="#2E373D"/>
<path d="M31.2381 11.1099L21.6064 16.6612C22.236 17.4219 22.7087 18.3108 22.9822 19.2795L23.8736 22.4397L33.5089 16.9608L32.5891 13.6995C32.3193 12.743 31.8558 11.8642 31.2381 11.1099Z" fill="#304E75"/>
<path d="M15.916 18.9428L22.4227 22.7075L21.8141 20.1002C21.4437 18.5135 20.4344 17.151 19.0261 16.3361L15.916 14.5366V18.9428Z" fill="#243B58"/>
<path d="M15.2153 14.131L12.2444 12.412C11.9622 12.2487 11.603 12.4034 11.5267 12.7205L10.75 15.9538L15.2153 18.5372V14.131Z" fill="#243B58"/>
<path d="M30.8585 11.3281L27.3047 13.3765L32.8885 16.6073L32.2797 13.9997C32.0441 12.9906 31.5494 12.0727 30.8585 11.3281Z" fill="#59718B"/>
</svg>
