<svg width="36" height="36" viewBox="0 0 36 36" fill="none" xmlns="http://www.w3.org/2000/svg">
<circle opacity="0.05" cx="18" cy="18" r="18" fill="#001871"/>
<path d="M24 24.5C23.6022 24.5 23.2206 24.342 22.9393 24.0607C22.658 23.7794 22.5 23.3978 22.5 23C22.5 22.6022 22.658 22.2206 22.9393 21.9393C23.2206 21.658 23.6022 21.5 24 21.5C24.3978 21.5 24.7794 21.658 25.0607 21.9393C25.342 22.2206 25.5 22.6022 25.5 23C25.5 23.3978 25.342 23.7794 25.0607 24.0607C24.7794 24.342 24.3978 24.5 24 24.5ZM25.5 15.5L27.46 18H23V15.5M12 24.5C11.6022 24.5 11.2206 24.342 10.9393 24.0607C10.658 23.7794 10.5 23.3978 10.5 23C10.5 22.6022 10.658 22.2206 10.9393 21.9393C11.2206 21.658 11.6022 21.5 12 21.5C12.3978 21.5 12.7794 21.658 13.0607 21.9393C13.342 22.2206 13.5 22.6022 13.5 23C13.5 23.3978 13.342 23.7794 13.0607 24.0607C12.7794 24.342 12.3978 24.5 12 24.5ZM26 14H23V10H9C7.89 10 7 10.89 7 12V23H9C9 23.7956 9.31607 24.5587 9.87868 25.1213C10.4413 25.6839 11.2044 26 12 26C12.7956 26 13.5587 25.6839 14.1213 25.1213C14.6839 24.5587 15 23.7956 15 23H21C21 23.7956 21.3161 24.5587 21.8787 25.1213C22.4413 25.6839 23.2044 26 24 26C24.7956 26 25.5587 25.6839 26.1213 25.1213C26.6839 24.5587 27 23.7956 27 23H29V18L26 14Z" fill="#001871"/>
</svg>
