<svg width="24" height="20" viewBox="0 0 24 20" fill="none" xmlns="http://www.w3.org/2000/svg">
<path fill-rule="evenodd" clip-rule="evenodd" d="M22.0916 5.71886C22.026 5.71505 21.9562 5.71352 21.8822 5.71429H18.9617C16.5698 5.71429 14.5238 7.57486 14.5238 10C14.5238 12.4251 16.571 14.2857 18.9617 14.2857H21.8822C21.9562 14.2865 22.0264 14.285 22.0927 14.2811C22.5843 14.2519 23.0484 14.047 23.3984 13.7047C23.7485 13.3624 23.9606 12.906 23.9954 12.4206C24 12.352 24 12.2777 24 12.2091V7.79086C24 7.72229 24 7.648 23.9954 7.57943C23.9606 7.09402 23.7485 6.63764 23.3984 6.29533C23.0484 5.95303 22.5832 5.74815 22.0916 5.71886ZM18.7061 11.1429C19.3214 11.1429 19.82 10.6309 19.82 10C19.82 9.36914 19.3214 8.85714 18.7061 8.85714C18.0896 8.85714 17.5911 9.36914 17.5911 10C17.5911 10.6309 18.0896 11.1429 18.7061 11.1429Z" fill="#001871"/>
<path fill-rule="evenodd" clip-rule="evenodd" d="M21.8811 16C21.921 15.9984 21.9608 16.0062 21.9972 16.0226C22.0336 16.0391 22.0656 16.0638 22.0905 16.0948C22.1154 16.1257 22.1325 16.162 22.1406 16.2008C22.1486 16.2395 22.1473 16.2796 22.1367 16.3177C21.9053 17.1314 21.5364 17.8263 20.9453 18.4091C20.079 19.2663 18.9814 19.6446 17.6258 19.8251C16.3073 20 14.6244 20 12.4985 20H10.0557C7.92983 20 6.24578 20 4.92839 19.8251C3.57282 19.6446 2.47518 19.2651 1.60887 18.4103C0.743711 17.5543 0.359711 16.4697 0.176964 15.1303C1.37881e-07 13.8274 0 12.1646 0 10.064V9.936C0 7.83543 1.37881e-07 6.17143 0.176964 4.86857C0.359711 3.52914 0.743711 2.44457 1.60887 1.58857C2.47518 0.733714 3.57282 0.354286 4.92839 0.173714C6.24694 -5.10897e-08 7.92983 0 10.0557 0H12.4985C14.6244 0 16.3084 1.36239e-07 17.6258 0.174857C18.9814 0.355429 20.079 0.734857 20.9453 1.58971C21.5364 2.17486 21.9053 2.86857 22.1367 3.68229C22.1473 3.72042 22.1486 3.76048 22.1406 3.79922C22.1325 3.83796 22.1154 3.87428 22.0905 3.90524C22.0656 3.93619 22.0336 3.9609 21.9972 3.97737C21.9608 3.99383 21.921 4.00159 21.8811 4H18.9617C15.6804 4 12.7888 6.56 12.7888 10C12.7888 13.44 15.6804 16 18.9617 16H21.8811ZM4.33735 4.57143C4.10728 4.57143 3.88664 4.66173 3.72396 4.82248C3.56127 4.98323 3.46988 5.20124 3.46988 5.42857C3.46988 5.6559 3.56127 5.87392 3.72396 6.03466C3.88664 6.19541 4.10728 6.28571 4.33735 6.28571H8.96385C9.19392 6.28571 9.41457 6.19541 9.57725 6.03466C9.73993 5.87392 9.83132 5.6559 9.83132 5.42857C9.83132 5.20124 9.73993 4.98323 9.57725 4.82248C9.41457 4.66173 9.19392 4.57143 8.96385 4.57143H4.33735Z" fill="#001871"/>
</svg>
