<svg width="20" height="20" viewBox="0 0 20 20" fill="none" xmlns="http://www.w3.org/2000/svg">
<g clip-path="url(#clip0_2468_2342)">
<path d="M0.426782 9.88041C0.426313 11.5608 0.868814 13.2016 1.71022 14.6478L0.346313 19.589L5.44256 18.2631C6.85213 19.0245 8.43143 19.4235 10.0363 19.4236H10.0405C15.3386 19.4236 19.6513 15.1458 19.6536 9.88793C19.6546 7.3401 18.6555 4.94428 16.8404 3.1418C15.0255 1.33948 12.6119 0.346378 10.0401 0.345215C4.74147 0.345215 0.429048 4.62273 0.42686 9.88041" fill="url(#paint0_linear_2468_2342)"/>
<path d="M0.0835938 9.87721C0.0830469 11.6181 0.541406 13.3175 1.41281 14.8155L0 19.9339L5.27898 18.5605C6.73352 19.3474 8.37117 19.7622 10.0376 19.7629H10.0419C15.53 19.7629 19.9977 15.3312 20 9.88511C20.0009 7.24574 18.9659 4.7638 17.0859 2.89674C15.2057 1.02992 12.7057 0.00108527 10.0419 0C4.55281 0 0.0857813 4.43101 0.0835938 9.87721ZM3.22742 14.5575L3.03031 14.2471C2.20172 12.9398 1.76437 11.4291 1.765 9.87783C1.76672 5.35109 5.47953 1.66822 10.045 1.66822C12.2559 1.66915 14.3337 2.52434 15.8966 4.07597C17.4593 5.62775 18.3192 7.69054 18.3187 9.8845C18.3166 14.4112 14.6037 18.0946 10.0419 18.0946H10.0386C8.5532 18.0938 7.09641 17.698 5.82594 16.95L5.52359 16.7721L2.39094 17.5871L3.22742 14.5575Z" fill="url(#paint1_linear_2468_2342)"/>
<path d="M7.55297 5.74776C7.36656 5.33668 7.17039 5.32838 6.99312 5.32117C6.84797 5.31497 6.68203 5.31544 6.51625 5.31544C6.35031 5.31544 6.0807 5.37738 5.85281 5.62427C5.62469 5.87141 4.98187 6.46862 4.98187 7.68327C4.98187 8.89792 5.87351 10.0719 5.99781 10.2368C6.12226 10.4013 7.71914 12.9737 10.2482 13.9633C12.3501 14.7857 12.7778 14.6222 13.234 14.5809C13.6902 14.5399 14.7062 13.9839 14.9134 13.4074C15.1209 12.8309 15.1209 12.3368 15.0587 12.2336C14.9965 12.1307 14.8305 12.0689 14.5817 11.9455C14.3329 11.8221 13.1095 11.2247 12.8815 11.1423C12.6534 11.06 12.4875 11.0189 12.3216 11.2661C12.1556 11.513 11.6791 12.0689 11.5339 12.2336C11.3888 12.3986 11.2436 12.4192 10.9948 12.2957C10.7459 12.1718 9.94453 11.9114 8.99383 11.0704C8.25414 10.416 7.75476 9.60784 7.60961 9.36063C7.46445 9.11381 7.59406 8.98001 7.71883 8.85699C7.83062 8.74637 7.96773 8.56869 8.09226 8.42458C8.21633 8.2804 8.25773 8.17753 8.3407 8.01288C8.42375 7.84807 8.38219 7.70389 8.32008 7.5804C8.25773 7.45691 7.77422 6.2359 7.55297 5.74776Z" fill="white"/>
</g>
<defs>
<linearGradient id="paint0_linear_2468_2342" x1="965.71" y1="1924.72" x2="965.71" y2="0.345215" gradientUnits="userSpaceOnUse">
<stop stop-color="#1FAF38"/>
<stop offset="1" stop-color="#60D669"/>
</linearGradient>
<linearGradient id="paint1_linear_2468_2342" x1="1000" y1="1993.39" x2="1000" y2="0" gradientUnits="userSpaceOnUse">
<stop stop-color="#F9F9F9"/>
<stop offset="1" stop-color="white"/>
</linearGradient>
<clipPath id="clip0_2468_2342">
<rect width="20" height="20" fill="white"/>
</clipPath>
</defs>
</svg>
