<svg width="324" height="64" viewBox="0 0 324 64" fill="none" xmlns="http://www.w3.org/2000/svg">
<mask id="mask0_3752_1753" style="mask-type:alpha" maskUnits="userSpaceOnUse" x="2" y="1" width="322" height="63">
<path d="M30.8452 63.0376C26.3628 63.0376 22.3369 62.332 18.7676 60.9209C15.2259 59.5098 12.21 57.4622 9.71973 54.7783C7.22949 52.0667 5.32031 48.7879 3.99219 44.9419C2.66406 41.0959 2 36.738 2 31.8682V31.8267C2 25.4074 3.16211 19.915 5.48633 15.3496C7.81055 10.7565 11.1032 7.22868 15.3643 4.76611C19.653 2.30355 24.7165 1.07227 30.5547 1.07227C35.3691 1.07227 39.6164 1.93001 43.2964 3.64551C46.9764 5.33333 49.9647 7.65755 52.2612 10.6182C54.5854 13.5788 56.0796 16.9406 56.7437 20.7036L56.8682 21.2847H44.2925L44.1265 20.8696C43.1304 17.9644 41.4702 15.7093 39.146 14.1045C36.8218 12.4997 33.9718 11.6973 30.5962 11.6973C27.3035 11.6973 24.4674 12.4858 22.0879 14.063C19.736 15.6125 17.9237 17.8813 16.6509 20.8696C15.4058 23.8579 14.7832 27.4688 14.7832 31.7021V31.7437C14.7832 34.981 15.1567 37.8862 15.9038 40.4595C16.6509 43.005 17.73 45.1632 19.1411 46.9341C20.5799 48.7049 22.2954 50.0607 24.2876 51.0015C26.3075 51.9422 28.5625 52.4126 31.0527 52.4126C33.7643 52.4126 36.1577 51.9146 38.2329 50.9185C40.3358 49.8947 41.9821 48.4697 43.1719 46.6436C44.3893 44.7897 45.0534 42.6315 45.1641 40.1689L45.2056 39.2974H31.5093V29.959H57.4077V36.8486C57.4077 40.916 56.799 44.5684 55.5815 47.8057C54.3918 51.043 52.6486 53.7961 50.3521 56.0649C48.0832 58.3338 45.3024 60.0632 42.0098 61.2529C38.7171 62.4427 34.9956 63.0376 30.8452 63.0376Z" fill="white"/>
<path d="M85.0908 62.9131C80.5807 62.9131 76.6794 61.9862 73.3867 60.1323C70.0941 58.2785 67.5485 55.6222 65.75 52.1636C63.9515 48.7049 63.0522 44.5684 63.0522 39.7539V39.6709C63.0522 34.8841 63.9653 30.7752 65.7915 27.3442C67.6177 23.8856 70.1771 21.2293 73.4697 19.3755C76.7624 17.5216 80.6222 16.5947 85.0493 16.5947C89.5041 16.5947 93.3778 17.5216 96.6704 19.3755C99.9907 21.2017 102.564 23.8441 104.39 27.3027C106.216 30.7337 107.129 34.8564 107.129 39.6709V39.7539C107.129 44.596 106.216 48.7464 104.39 52.2051C102.592 55.6637 100.046 58.32 96.7534 60.1738C93.4608 62 89.5732 62.9131 85.0908 62.9131ZM85.1323 53.4087C87.0968 53.4087 88.7985 52.883 90.2373 51.8315C91.7038 50.7524 92.8244 49.203 93.5991 47.1831C94.4015 45.1356 94.8027 42.6592 94.8027 39.7539V39.6709C94.8027 36.7933 94.4015 34.3446 93.5991 32.3247C92.7967 30.3048 91.6623 28.7692 90.1958 27.7178C88.7293 26.6387 87.0138 26.0991 85.0493 26.0991C83.1125 26.0991 81.4108 26.6387 79.9443 27.7178C78.5055 28.7692 77.3849 30.3048 76.5825 32.3247C75.7801 34.3446 75.3789 36.7933 75.3789 39.6709V39.7539C75.3789 42.6592 75.7663 45.1356 76.541 47.1831C77.3434 49.203 78.4779 50.7524 79.9443 51.8315C81.4108 52.883 83.1401 53.4087 85.1323 53.4087Z" fill="white"/>
<path d="M112.732 62V53.8237L143.196 12.6934V12.4443H113.438V2.10986H158.138V10.2446L127.798 51.4165V51.6655H158.968V62H112.732Z" fill="white"/>
<path d="M186.194 62.9131C181.684 62.9131 177.783 61.9862 174.49 60.1323C171.198 58.2785 168.652 55.6222 166.854 52.1636C165.055 48.7049 164.156 44.5684 164.156 39.7539V39.6709C164.156 34.8841 165.069 30.7752 166.895 27.3442C168.721 23.8856 171.281 21.2293 174.573 19.3755C177.866 17.5216 181.726 16.5947 186.153 16.5947C190.608 16.5947 194.481 17.5216 197.774 19.3755C201.094 21.2017 203.667 23.8441 205.494 27.3027C207.32 30.7337 208.233 34.8564 208.233 39.6709V39.7539C208.233 44.596 207.32 48.7464 205.494 52.2051C203.695 55.6637 201.15 58.32 197.857 60.1738C194.564 62 190.677 62.9131 186.194 62.9131ZM186.236 53.4087C188.2 53.4087 189.902 52.883 191.341 51.8315C192.807 50.7524 193.928 49.203 194.703 47.1831C195.505 45.1356 195.906 42.6592 195.906 39.7539V39.6709C195.906 36.7933 195.505 34.3446 194.703 32.3247C193.9 30.3048 192.766 28.7692 191.299 27.7178C189.833 26.6387 188.117 26.0991 186.153 26.0991C184.216 26.0991 182.514 26.6387 181.048 27.7178C179.609 28.7692 178.488 30.3048 177.686 32.3247C176.884 34.3446 176.482 36.7933 176.482 39.6709V39.7539C176.482 42.6592 176.87 45.1356 177.645 47.1831C178.447 49.203 179.581 50.7524 181.048 51.8315C182.514 52.883 184.244 53.4087 186.236 53.4087Z" fill="white"/>
<path d="M222.759 62L210.931 17.5078H223.133L229.856 50.5034H230.105L237.991 17.5078H249.612L257.54 50.5034H257.789L264.554 17.5078H276.507L264.72 62H251.812L243.76 30.54H243.511L235.501 62H222.759Z" fill="white"/>
<path d="M300.994 62.9131C296.484 62.9131 292.583 61.9862 289.29 60.1323C285.997 58.2785 283.452 55.6222 281.653 52.1636C279.855 48.7049 278.956 44.5684 278.956 39.7539V39.6709C278.956 34.8841 279.869 30.7752 281.695 27.3442C283.521 23.8856 286.08 21.2293 289.373 19.3755C292.666 17.5216 296.526 16.5947 300.953 16.5947C305.407 16.5947 309.281 17.5216 312.574 19.3755C315.894 21.2017 318.467 23.8441 320.293 27.3027C322.12 30.7337 323.033 34.8564 323.033 39.6709V39.7539C323.033 44.596 322.12 48.7464 320.293 52.2051C318.495 55.6637 315.949 58.32 312.657 60.1738C309.364 62 305.477 62.9131 300.994 62.9131ZM301.036 53.4087C303 53.4087 304.702 52.883 306.141 51.8315C307.607 50.7524 308.728 49.203 309.502 47.1831C310.305 45.1356 310.706 42.6592 310.706 39.7539V39.6709C310.706 36.7933 310.305 34.3446 309.502 32.3247C308.7 30.3048 307.566 28.7692 306.099 27.7178C304.633 26.6387 302.917 26.0991 300.953 26.0991C299.016 26.0991 297.314 26.6387 295.848 27.7178C294.409 28.7692 293.288 30.3048 292.486 32.3247C291.683 34.3446 291.282 36.7933 291.282 39.6709V39.7539C291.282 42.6592 291.67 45.1356 292.444 47.1831C293.247 49.203 294.381 50.7524 295.848 51.8315C297.314 52.883 299.043 53.4087 301.036 53.4087Z" fill="white"/>
</mask>
<g mask="url(#mask0_3752_1753)">
<rect x="0.62207" y="34" width="322" height="29" fill="white"/>
</g>
<mask id="mask1_3752_1753" style="mask-type:alpha" maskUnits="userSpaceOnUse" x="0" y="0" width="322" height="62">
<path d="M28.8452 61.9653C24.3628 61.9653 20.3369 61.2598 16.7676 59.8486C13.2259 58.4375 10.21 56.39 7.71973 53.7061C5.22949 50.9945 3.32031 47.7157 1.99219 43.8696C0.664062 40.0236 0 35.6657 0 30.7959V30.7544C0 24.3351 1.16211 18.8428 3.48633 14.2773C5.81055 9.68424 9.10319 6.15641 13.3643 3.69385C17.653 1.23128 22.7165 0 28.5547 0C33.3691 0 37.6164 0.857747 41.2964 2.57324C44.9764 4.26107 47.9647 6.58529 50.2612 9.5459C52.5854 12.5065 54.0796 15.8683 54.7437 19.6313L54.8682 20.2124H42.2925L42.1265 19.7974C41.1304 16.8921 39.4702 14.637 37.146 13.0322C34.8218 11.4274 31.9718 10.625 28.5962 10.625C25.3035 10.625 22.4674 11.4136 20.0879 12.9907C17.736 14.5402 15.9237 16.8091 14.6509 19.7974C13.4058 22.7856 12.7832 26.3965 12.7832 30.6299V30.6714C12.7832 33.9087 13.1567 36.814 13.9038 39.3872C14.6509 41.9328 15.73 44.091 17.1411 45.8618C18.5799 47.6326 20.2954 48.9884 22.2876 49.9292C24.3075 50.87 26.5625 51.3403 29.0527 51.3403C31.7643 51.3403 34.1577 50.8423 36.2329 49.8462C38.3358 48.8224 39.9821 47.3975 41.1719 45.5713C42.3893 43.7174 43.0534 41.5592 43.1641 39.0967L43.2056 38.2251H29.5093V28.8867H55.4077V35.7764C55.4077 39.8438 54.799 43.4961 53.5815 46.7334C52.3918 49.9707 50.6486 52.7238 48.3521 54.9927C46.0832 57.2616 43.3024 58.9909 40.0098 60.1807C36.7171 61.3704 32.9956 61.9653 28.8452 61.9653Z" fill="white"/>
<path d="M83.0908 61.8408C78.5807 61.8408 74.6794 60.9139 71.3867 59.0601C68.0941 57.2062 65.5485 54.55 63.75 51.0913C61.9515 47.6326 61.0522 43.4961 61.0522 38.6816V38.5986C61.0522 33.8118 61.9653 29.703 63.7915 26.272C65.6177 22.8133 68.1771 20.1571 71.4697 18.3032C74.7624 16.4494 78.6222 15.5225 83.0493 15.5225C87.5041 15.5225 91.3778 16.4494 94.6704 18.3032C97.9907 20.1294 100.564 22.7718 102.39 26.2305C104.216 29.6615 105.129 33.7842 105.129 38.5986V38.6816C105.129 43.5238 104.216 47.6742 102.39 51.1328C100.592 54.5915 98.0461 57.2477 94.7534 59.1016C91.4608 60.9277 87.5732 61.8408 83.0908 61.8408ZM83.1323 52.3364C85.0968 52.3364 86.7985 51.8107 88.2373 50.7593C89.7038 49.6802 90.8244 48.1307 91.5991 46.1108C92.4015 44.0633 92.8027 41.5869 92.8027 38.6816V38.5986C92.8027 35.721 92.4015 33.2723 91.5991 31.2524C90.7967 29.2326 89.6623 27.6969 88.1958 26.6455C86.7293 25.5664 85.0138 25.0269 83.0493 25.0269C81.1125 25.0269 79.4108 25.5664 77.9443 26.6455C76.5055 27.6969 75.3849 29.2326 74.5825 31.2524C73.7801 33.2723 73.3789 35.721 73.3789 38.5986V38.6816C73.3789 41.5869 73.7663 44.0633 74.541 46.1108C75.3434 48.1307 76.4779 49.6802 77.9443 50.7593C79.4108 51.8107 81.1401 52.3364 83.1323 52.3364Z" fill="white"/>
<path d="M110.732 60.9277V52.7515L141.196 11.6211V11.3721H111.438V1.0376H156.138V9.17236L125.798 50.3442V50.5933H156.968V60.9277H110.732Z" fill="white"/>
<path d="M184.194 61.8408C179.684 61.8408 175.783 60.9139 172.49 59.0601C169.198 57.2062 166.652 54.55 164.854 51.0913C163.055 47.6326 162.156 43.4961 162.156 38.6816V38.5986C162.156 33.8118 163.069 29.703 164.895 26.272C166.721 22.8133 169.281 20.1571 172.573 18.3032C175.866 16.4494 179.726 15.5225 184.153 15.5225C188.608 15.5225 192.481 16.4494 195.774 18.3032C199.094 20.1294 201.667 22.7718 203.494 26.2305C205.32 29.6615 206.233 33.7842 206.233 38.5986V38.6816C206.233 43.5238 205.32 47.6742 203.494 51.1328C201.695 54.5915 199.15 57.2477 195.857 59.1016C192.564 60.9277 188.677 61.8408 184.194 61.8408ZM184.236 52.3364C186.2 52.3364 187.902 51.8107 189.341 50.7593C190.807 49.6802 191.928 48.1307 192.703 46.1108C193.505 44.0633 193.906 41.5869 193.906 38.6816V38.5986C193.906 35.721 193.505 33.2723 192.703 31.2524C191.9 29.2326 190.766 27.6969 189.299 26.6455C187.833 25.5664 186.117 25.0269 184.153 25.0269C182.216 25.0269 180.514 25.5664 179.048 26.6455C177.609 27.6969 176.488 29.2326 175.686 31.2524C174.884 33.2723 174.482 35.721 174.482 38.5986V38.6816C174.482 41.5869 174.87 44.0633 175.645 46.1108C176.447 48.1307 177.581 49.6802 179.048 50.7593C180.514 51.8107 182.244 52.3364 184.236 52.3364Z" fill="white"/>
<path d="M220.759 60.9277L208.931 16.4355H221.133L227.856 49.4312H228.105L235.991 16.4355H247.612L255.54 49.4312H255.789L262.554 16.4355H274.507L262.72 60.9277H249.812L241.76 29.4678H241.511L233.501 60.9277H220.759Z" fill="white"/>
<path d="M298.994 61.8408C294.484 61.8408 290.583 60.9139 287.29 59.0601C283.997 57.2062 281.452 54.55 279.653 51.0913C277.855 47.6326 276.956 43.4961 276.956 38.6816V38.5986C276.956 33.8118 277.869 29.703 279.695 26.272C281.521 22.8133 284.08 20.1571 287.373 18.3032C290.666 16.4494 294.526 15.5225 298.953 15.5225C303.407 15.5225 307.281 16.4494 310.574 18.3032C313.894 20.1294 316.467 22.7718 318.293 26.2305C320.12 29.6615 321.033 33.7842 321.033 38.5986V38.6816C321.033 43.5238 320.12 47.6742 318.293 51.1328C316.495 54.5915 313.949 57.2477 310.657 59.1016C307.364 60.9277 303.477 61.8408 298.994 61.8408ZM299.036 52.3364C301 52.3364 302.702 51.8107 304.141 50.7593C305.607 49.6802 306.728 48.1307 307.502 46.1108C308.305 44.0633 308.706 41.5869 308.706 38.6816V38.5986C308.706 35.721 308.305 33.2723 307.502 31.2524C306.7 29.2326 305.566 27.6969 304.099 26.6455C302.633 25.5664 300.917 25.0269 298.953 25.0269C297.016 25.0269 295.314 25.5664 293.848 26.6455C292.409 27.6969 291.288 29.2326 290.486 31.2524C289.683 33.2723 289.282 35.721 289.282 38.5986V38.6816C289.282 41.5869 289.67 44.0633 290.444 46.1108C291.247 48.1307 292.381 49.6802 293.848 50.7593C295.314 51.8107 297.043 52.3364 299.036 52.3364Z" fill="white"/>
</mask>
<g mask="url(#mask1_3752_1753)">
<rect x="-1.37793" y="-1" width="322" height="34" fill="white"/>
</g>
</svg>
