<svg width="40" height="40" viewBox="0 0 40 40" fill="none" xmlns="http://www.w3.org/2000/svg">
<circle opacity="0.1" cx="20" cy="20" r="20" fill="#001871"/>
<path d="M17.06 9.93022C15.17 9.92022 13.33 11.7402 14.17 14.0002H11C10.4696 14.0002 9.96086 14.2109 9.58579 14.586C9.21071 14.9611 9 15.4698 9 16.0002V18.0002C9 18.2654 9.10536 18.5198 9.29289 18.7073C9.48043 18.8949 9.73478 19.0002 10 19.0002H19V16.0002H21V19.0002H30C30.2652 19.0002 30.5196 18.8949 30.7071 18.7073C30.8946 18.5198 31 18.2654 31 18.0002V16.0002C31 15.4698 30.7893 14.9611 30.4142 14.586C30.0391 14.2109 29.5304 14.0002 29 14.0002H25.83C27 10.7302 22.6 8.42022 20.57 11.2402L20 12.0002L19.43 11.2202C18.8 10.3302 17.93 9.94022 17.06 9.93022ZM17 12.0002C17.89 12.0002 18.34 13.0802 17.71 13.7102C17.08 14.3402 16 13.8902 16 13.0002C16 12.735 16.1054 12.4806 16.2929 12.2931C16.4804 12.1056 16.7348 12.0002 17 12.0002ZM23 12.0002C23.89 12.0002 24.34 13.0802 23.71 13.7102C23.08 14.3402 22 13.8902 22 13.0002C22 12.735 22.1054 12.4806 22.2929 12.2931C22.4804 12.1056 22.7348 12.0002 23 12.0002ZM10 20.0002V28.0002C10 28.5307 10.2107 29.0394 10.5858 29.4144C10.9609 29.7895 11.4696 30.0002 12 30.0002H28C28.5304 30.0002 29.0391 29.7895 29.4142 29.4144C29.7893 29.0394 30 28.5307 30 28.0002V20.0002H21V28.0002H19V20.0002H10Z" fill="#001871"/>
</svg>
