<svg width="40" height="40" viewBox="0 0 40 40" fill="none" xmlns="http://www.w3.org/2000/svg">
<circle opacity="0.1" cx="20" cy="20" r="20" fill="#001871"/>
<g clip-path="url(#clip0_4281_4922)">
<path d="M8 20C8 16.8174 9.26428 13.7652 11.5147 11.5147C13.7652 9.26428 16.8174 8 20 8C23.1826 8 26.2348 9.26428 28.4853 11.5147C30.7357 13.7652 32 16.8174 32 20C32 23.1826 30.7357 26.2348 28.4853 28.4853C26.2348 30.7357 23.1826 32 20 32C16.8174 32 13.7652 30.7357 11.5147 28.4853C9.26428 26.2348 8 23.1826 8 20ZM15.5 17.75H18.5C18.5 17.5511 18.579 17.3603 18.7197 17.2197C18.8603 17.079 19.0511 17 19.25 17H20.219C20.3482 17.0001 20.4735 17.0437 20.5747 17.124C20.6759 17.2042 20.747 17.3163 20.7766 17.442C20.8061 17.5677 20.7923 17.6998 20.7373 17.8167C20.6824 17.9336 20.5896 18.0285 20.474 18.086L18.5 19.073V21.5H21.5V20.927L21.8165 20.768C22.536 20.4078 23.1128 19.8154 23.4536 19.0866C23.7944 18.3578 23.8793 17.5352 23.6945 16.7522C23.5096 15.9691 23.0659 15.2714 22.4352 14.7719C21.8044 14.2724 21.0236 14.0004 20.219 14H19.25C18.2554 14 17.3016 14.3951 16.5983 15.0983C15.8951 15.8016 15.5 16.7554 15.5 17.75ZM20 26C20.3978 26 20.7794 25.842 21.0607 25.5607C21.342 25.2794 21.5 24.8978 21.5 24.5C21.5 24.1022 21.342 23.7206 21.0607 23.4393C20.7794 23.158 20.3978 23 20 23C19.6022 23 19.2206 23.158 18.9393 23.4393C18.658 23.7206 18.5 24.1022 18.5 24.5C18.5 24.8978 18.658 25.2794 18.9393 25.5607C19.2206 25.842 19.6022 26 20 26Z" fill="#001871"/>
</g>
<defs>
<clipPath id="clip0_4281_4922">
<rect width="24" height="24" fill="white" transform="translate(8 8)"/>
</clipPath>
</defs>
</svg>
