<svg width="40" height="40" viewBox="0 0 40 40" fill="none" xmlns="http://www.w3.org/2000/svg">
<circle opacity="0.1" cx="20" cy="20" r="20" fill="#001871"/>
<path d="M14.009 14.5C14.009 13.7089 14.2436 12.9355 14.6831 12.2777C15.1226 11.6199 15.7474 11.1072 16.4783 10.8045C17.2092 10.5017 18.0134 10.4225 18.7894 10.5769C19.5653 10.7312 20.278 11.1122 20.8374 11.6716C21.3968 12.231 21.7778 12.9437 21.9321 13.7196C22.0865 14.4956 22.0073 15.2998 21.7045 16.0307C21.4018 16.7616 20.8891 17.3864 20.2313 17.8259C19.5735 18.2654 18.8001 18.5 18.009 18.5C16.9481 18.5 15.9307 18.0786 15.1806 17.3284C14.4304 16.5783 14.009 15.5609 14.009 14.5ZM24.057 22.18C24.0439 22.0876 23.999 22.0027 23.93 21.94C23.4051 21.4485 22.7867 21.0676 22.1115 20.8202C21.4363 20.5728 20.7182 20.4639 20 20.5H16C11.94 20.5 10.5 23.47 10.5 26.02C10.5 28.3 11.71 29.5 14 29.5H19.2C19.2394 29.5011 19.2786 29.4937 19.3149 29.4781C19.3512 29.4626 19.3836 29.4393 19.41 29.41C19.4656 29.352 19.4977 29.2754 19.5 29.195V27.5C19.5004 27.1023 19.6586 26.721 19.94 26.44L23.97 22.39C24.0246 22.3336 24.0557 22.2585 24.057 22.18ZM21 27.5V30H23.5L28.039 25.481L25.52 22.962L21 27.5ZM29.708 22.411L28.588 21.291C28.4006 21.1048 28.1472 21.0002 27.883 21.0002C27.6188 21.0002 27.3654 21.1048 27.178 21.291L26.219 22.261L28.738 24.78L29.708 23.821C29.8939 23.6337 29.9983 23.3804 29.9983 23.1165C29.9983 22.8526 29.8939 22.5983 29.708 22.411Z" fill="#001871"/>
</svg>
