<svg width="40" height="40" viewBox="0 0 40 40" fill="none" xmlns="http://www.w3.org/2000/svg">
<circle opacity="0.1" cx="20" cy="20" r="20" fill="#001871"/>
<path d="M12.9321 12.2856C12.0796 12.2856 11.262 12.6243 10.6592 13.2271C10.0564 13.8299 9.71777 14.6474 9.71777 15.4999V16.1428H30.2858V15.4999C30.2858 14.6474 29.9471 13.8299 29.3443 13.2271C28.7415 12.6243 27.924 12.2856 27.0715 12.2856H12.9321ZM9.71777 24.4999V17.4285H30.2858V24.4999C30.2858 25.3524 29.9471 26.17 29.3443 26.7728C28.7415 27.3756 27.924 27.7142 27.0715 27.7142H12.9329C12.0804 27.7142 11.2629 27.3756 10.6601 26.7728C10.0573 26.17 9.71863 25.3524 9.71863 24.4999M23.6429 22.1428C23.4724 22.1428 23.3089 22.2105 23.1883 22.3311C23.0678 22.4516 23.0001 22.6151 23.0001 22.7856C23.0001 22.9561 23.0678 23.1197 23.1883 23.2402C23.3089 23.3608 23.4724 23.4285 23.6429 23.4285H26.6429C26.8134 23.4285 26.9769 23.3608 27.0975 23.2402C27.218 23.1197 27.2858 22.9561 27.2858 22.7856C27.2858 22.6151 27.218 22.4516 27.0975 22.3311C26.9769 22.2105 26.8134 22.1428 26.6429 22.1428H23.6429Z" fill="#001871"/>
</svg>
