<svg width="40" height="40" viewBox="0 0 40 40" fill="none" xmlns="http://www.w3.org/2000/svg">
<circle opacity="0.1" cx="20" cy="20" r="20" fill="#001871"/>
<path d="M29 14.4995C29 16.4295 27.43 17.9995 25.5 17.9995C23.57 17.9995 22 16.4295 22 14.4995C22 12.5695 23.57 10.9995 25.5 10.9995C27.43 10.9995 29 12.5695 29 14.4995ZM27 19.7895C26.5 19.9195 26 19.9995 25.5 19.9995C24.0421 19.9969 22.6447 19.4166 21.6138 18.3857C20.583 17.3548 20.0026 15.9574 20 14.4995C20 13.0295 20.58 11.6995 21.5 10.7095C21.3185 10.4871 21.0897 10.3079 20.8302 10.1851C20.5707 10.0622 20.2871 9.99885 20 9.99952C18.9 9.99952 18 10.8995 18 11.9995V12.2895C15.03 13.1695 13 15.8995 13 18.9995V24.9995L11 26.9995V27.9995H29V26.9995L27 24.9995V19.7895ZM20 30.9995C21.11 30.9995 22 30.1095 22 28.9995H18C18 29.53 18.2107 30.0387 18.5858 30.4137C18.9609 30.7888 19.4696 30.9995 20 30.9995Z" fill="#001871"/>
</svg>
