<svg width="40" height="40" viewBox="0 0 40 40" fill="none" xmlns="http://www.w3.org/2000/svg">
<circle opacity="0.1" cx="20" cy="20" r="20" fill="#001871"/>
<path fill-rule="evenodd" clip-rule="evenodd" d="M29.0999 16.0042C29.0432 16.0008 28.9829 15.9995 28.9189 16.0002H26.3939C24.3259 16.0002 22.5569 17.6282 22.5569 19.7502C22.5569 21.8722 24.3269 23.5002 26.3939 23.5002H28.9189C28.9829 23.5008 29.0436 23.4995 29.1009 23.4962C29.5259 23.4705 29.9271 23.2913 30.2298 22.9917C30.5324 22.6922 30.7158 22.2929 30.7459 21.8682C30.7499 21.8082 30.7499 21.7432 30.7499 21.6832V17.8172C30.7499 17.7572 30.7499 17.6922 30.7459 17.6322C30.7158 17.2074 30.5324 16.8081 30.2298 16.5086C29.9271 16.2091 29.5249 16.0298 29.0999 16.0042ZM26.1729 20.7502C26.7049 20.7502 27.1359 20.3022 27.1359 19.7502C27.1359 19.1982 26.7049 18.7502 26.1729 18.7502C25.6399 18.7502 25.2089 19.1982 25.2089 19.7502C25.2089 20.3022 25.6399 20.7502 26.1729 20.7502Z" fill="#001871"/>
<path fill-rule="evenodd" clip-rule="evenodd" d="M28.918 25C28.9526 24.9986 28.987 25.0054 29.0184 25.0198C29.0499 25.0342 29.0775 25.0558 29.099 25.0829C29.1206 25.11 29.1354 25.1418 29.1424 25.1757C29.1493 25.2096 29.1481 25.2446 29.139 25.278C28.939 25.99 28.62 26.598 28.109 27.108C27.36 27.858 26.411 28.189 25.239 28.347C24.099 28.5 22.644 28.5 20.806 28.5H18.694C16.856 28.5 15.4 28.5 14.261 28.347C13.089 28.189 12.14 27.857 11.391 27.109C10.643 26.36 10.311 25.411 10.153 24.239C10 23.099 10 21.644 10 19.806V19.694C10 17.856 10 16.4 10.153 15.26C10.311 14.088 10.643 13.139 11.391 12.39C12.14 11.642 13.089 11.31 14.261 11.152C15.401 11 16.856 11 18.694 11H20.806C22.644 11 24.1 11 25.239 11.153C26.411 11.311 27.36 11.643 28.109 12.391C28.62 12.903 28.939 13.51 29.139 14.222C29.1481 14.2554 29.1493 14.2904 29.1424 14.3243C29.1354 14.3582 29.1206 14.39 29.099 14.4171C29.0775 14.4442 29.0499 14.4658 29.0184 14.4802C28.987 14.4946 28.9526 14.5014 28.918 14.5H26.394C23.557 14.5 21.057 16.74 21.057 19.75C21.057 22.76 23.557 25 26.394 25H28.918ZM13.75 15C13.5511 15 13.3603 15.079 13.2197 15.2197C13.079 15.3603 13 15.5511 13 15.75C13 15.9489 13.079 16.1397 13.2197 16.2803C13.3603 16.421 13.5511 16.5 13.75 16.5H17.75C17.9489 16.5 18.1397 16.421 18.2803 16.2803C18.421 16.1397 18.5 15.9489 18.5 15.75C18.5 15.5511 18.421 15.3603 18.2803 15.2197C18.1397 15.079 17.9489 15 17.75 15H13.75Z" fill="#001871"/>
</svg>
