<svg width="40" height="40" viewBox="0 0 40 40" fill="none" xmlns="http://www.w3.org/2000/svg">
<circle opacity="0.1" cx="20" cy="20" r="20" fill="#001871"/>
<path d="M20 8C26.6274 8 32 13.3726 32 20C32 26.6274 26.6274 32 20 32C13.3726 32 8 26.6274 8 20C8 13.3726 13.3726 8 20 8Z" fill="#001871"/>
<g clip-path="url(#clip0_4283_4940)">
<path d="M18.5642 12.792C20.2318 12.4599 21.9638 12.7164 23.4636 13.5176C24.9633 14.3189 26.1388 15.6158 26.7898 17.1865C27.4408 18.7574 27.5273 20.5055 27.0339 22.1328C26.5406 23.7602 25.4975 25.1664 24.0837 26.1113C22.67 27.056 20.9722 27.4819 19.28 27.3154C17.5877 27.1488 16.005 26.3997 14.8025 25.1973C14.51 24.9044 14.5098 24.4295 14.8025 24.1367C15.0954 23.844 15.5712 23.8439 15.864 24.1367C16.8211 25.0936 18.0806 25.6897 19.4275 25.8223C20.7742 25.9546 22.1256 25.6162 23.2507 24.8643C24.376 24.1122 25.2057 22.9925 25.5984 21.6973C25.9909 20.4021 25.9222 19.011 25.4041 17.7607C24.8859 16.5106 23.9502 15.4786 22.7566 14.8408C21.5629 14.2032 20.1844 13.9984 18.8572 14.2627C17.5298 14.5272 16.3346 15.2445 15.4763 16.291C14.6944 17.2447 14.2367 18.4186 14.1619 19.6436L14.3367 19.4697C14.6296 19.1772 15.1044 19.1771 15.3972 19.4697C15.6897 19.7625 15.6897 20.2374 15.3972 20.5303L13.9304 21.9971C13.8775 22.05 13.8164 22.0902 13.7537 22.124C13.7314 22.136 13.7098 22.1494 13.6863 22.1592C13.6532 22.1728 13.619 22.1817 13.5847 22.1904C13.5723 22.1936 13.5603 22.1986 13.5476 22.2012C13.5421 22.2023 13.5365 22.2031 13.531 22.2041C13.4884 22.2116 13.4449 22.2168 13.4001 22.2168C13.3549 22.2168 13.3104 22.2118 13.2673 22.2041C13.2618 22.2031 13.2562 22.2023 13.2507 22.2012C13.2373 22.1985 13.2248 22.1929 13.2117 22.1895C13.1784 22.1808 13.1451 22.1724 13.113 22.1592C13.0899 22.1496 13.0685 22.1368 13.0466 22.125C12.9836 22.0912 12.9231 22.0502 12.8699 21.9971L11.4031 20.5303C11.1103 20.2374 11.1103 19.7626 11.4031 19.4697C11.696 19.1772 12.1708 19.1771 12.4636 19.4697L12.658 19.6641C12.7303 18.0846 13.3107 16.5671 14.3171 15.3398C15.3955 14.025 16.8965 13.1243 18.5642 12.792ZM19.2664 16.3164C19.6803 16.3165 20.0161 16.6525 20.0164 17.0664V19.9834H22.9333C23.3473 19.9835 23.6831 20.3195 23.6833 20.7334C23.6832 21.1474 23.3473 21.4833 22.9333 21.4834H19.2664C18.8524 21.4832 18.5165 21.1474 18.5164 20.7334V17.0664C18.5166 16.6525 18.8524 16.3166 19.2664 16.3164Z" fill="#E5E8F1"/>
</g>
<defs>
<clipPath id="clip0_4283_4940">
<rect width="17.6" height="17.6" fill="white" transform="translate(11.2 11.2002)"/>
</clipPath>
</defs>
</svg>
