<svg width="40" height="40" viewBox="0 0 40 40" fill="none" xmlns="http://www.w3.org/2000/svg">
<circle cx="20" cy="20" r="20" fill="#001871" fill-opacity="0.1"/>
<g clip-path="url(#clip0_3439_2164)">
<path d="M12.3627 29.9056V28.6481C12.3627 28.1659 12.0746 27.8516 11.5806 27.8516C11.3336 27.8516 11.0661 27.9355 10.8808 28.208C10.7368 27.9774 10.5311 27.8516 10.2223 27.8516C10.0165 27.8516 9.81077 27.9145 9.64605 28.145V27.8935H9.21387V29.9056H9.64605V28.7948C9.64605 28.4385 9.8313 28.2708 10.1195 28.2708C10.4075 28.2708 10.5517 28.4594 10.5517 28.7948V29.9056H10.9839V28.7948C10.9839 28.4385 11.1896 28.2708 11.4571 28.2708C11.7453 28.2708 11.8893 28.4594 11.8893 28.7948V29.9056H12.3627ZM18.7631 27.8935H18.0635V27.2857H17.6313V27.8935H17.2403V28.2917H17.6312V29.214C17.6312 29.6752 17.8165 29.9476 18.3104 29.9476C18.4957 29.9476 18.7014 29.8847 18.8456 29.8009L18.722 29.4236C18.5985 29.5074 18.4545 29.5284 18.3516 29.5284C18.1458 29.5284 18.0635 29.4027 18.0635 29.193V28.2917H18.7631V27.8935ZM22.4265 27.8515C22.1796 27.8515 22.015 27.9774 21.912 28.145V27.8935H21.4798V29.9056H21.912V28.7738C21.912 28.4385 22.056 28.2499 22.3236 28.2499C22.4059 28.2499 22.5088 28.2709 22.5911 28.2918L22.7146 27.8726C22.6323 27.8516 22.5088 27.8516 22.4265 27.8516M16.8904 28.0613C16.6845 27.9146 16.3964 27.8517 16.0877 27.8517C15.5938 27.8517 15.2646 28.1032 15.2646 28.5015C15.2646 28.8369 15.5115 29.0254 15.9437 29.0883L16.1495 29.1094C16.3759 29.1512 16.4994 29.2141 16.4994 29.3189C16.4994 29.4656 16.3347 29.5704 16.0466 29.5704C15.7584 29.5704 15.5321 29.4656 15.388 29.3608L15.1822 29.6962C15.4086 29.8638 15.7173 29.9476 16.0259 29.9476C16.6022 29.9476 16.9316 29.6752 16.9316 29.2979C16.9316 28.9416 16.664 28.7529 16.2523 28.6901L16.0466 28.6691C15.8613 28.6481 15.7173 28.6063 15.7173 28.4805C15.7173 28.3338 15.8613 28.25 16.0877 28.25C16.3347 28.25 16.5817 28.3547 16.7051 28.4176L16.8904 28.0613ZM28.3743 27.8517C28.1273 27.8517 27.9626 27.9775 27.8597 28.1451V27.8936H27.4275V29.9057H27.8597V28.7739C27.8597 28.4386 28.0038 28.25 28.2713 28.25C28.3537 28.25 28.4566 28.271 28.5389 28.2919L28.6624 27.8727C28.5801 27.8517 28.4566 27.8517 28.3743 27.8517ZM22.8587 28.8997C22.8587 29.5075 23.2703 29.9476 23.9083 29.9476C24.1964 29.9476 24.4022 29.8848 24.608 29.7172L24.4022 29.3608C24.2376 29.4866 24.073 29.5494 23.8877 29.5494C23.5378 29.5494 23.2909 29.2979 23.2909 28.8997C23.2909 28.5225 23.5378 28.2709 23.8877 28.25C24.073 28.25 24.2376 28.3128 24.4022 28.4386L24.608 28.0823C24.4022 27.9146 24.1964 27.8517 23.9083 27.8517C23.2703 27.8517 22.8587 28.2919 22.8587 28.8997ZM26.8513 28.8997V27.8936H26.4191V28.1451C26.2751 27.9566 26.0693 27.8517 25.8017 27.8517C25.2461 27.8517 24.8139 28.2919 24.8139 28.8997C24.8139 29.5075 25.2461 29.9476 25.8017 29.9476C26.0898 29.9476 26.2957 29.8429 26.4191 29.6542V29.9057H26.8513V28.8997ZM25.2666 28.8997C25.2666 28.5434 25.493 28.25 25.8634 28.25C26.2133 28.25 26.4603 28.5225 26.4603 28.8997C26.4603 29.256 26.2133 29.5494 25.8634 29.5494C25.493 29.5284 25.2666 29.256 25.2666 28.8997ZM20.101 27.8517C19.5247 27.8517 19.113 28.2709 19.113 28.8997C19.113 29.5285 19.5246 29.9476 20.1215 29.9476C20.4096 29.9476 20.6978 29.8638 20.9242 29.6752L20.7183 29.3608C20.5537 29.4866 20.3479 29.5704 20.1421 29.5704C19.8746 29.5704 19.607 29.4447 19.5452 29.0883H21.0065V28.9207C21.0271 28.2709 20.6567 27.8517 20.101 27.8517ZM20.1009 28.229C20.3683 28.229 20.5537 28.3967 20.5947 28.7111H19.5657C19.6069 28.4386 19.7921 28.229 20.1009 28.229ZM30.8232 28.8997V27.0972H30.3911V28.1451C30.247 27.9566 30.0412 27.8517 29.7736 27.8517C29.218 27.8517 28.7858 28.2919 28.7858 28.8997C28.7858 29.5075 29.218 29.9476 29.7736 29.9476C30.0618 29.9476 30.2676 29.8429 30.3911 29.6542V29.9057H30.8232V28.8997ZM29.2386 28.8997C29.2386 28.5434 29.4649 28.25 29.8354 28.25C30.1853 28.25 30.4322 28.5225 30.4322 28.8997C30.4322 29.256 30.1853 29.5494 29.8354 29.5494C29.4649 29.5284 29.2386 29.256 29.2386 28.8997ZM14.7911 28.8997V27.8936H14.3589V28.1451C14.2148 27.9566 14.009 27.8517 13.7414 27.8517C13.1858 27.8517 12.7536 28.2919 12.7536 28.8997C12.7536 29.5075 13.1858 29.9476 13.7414 29.9476C14.0296 29.9476 14.2354 29.8429 14.3589 29.6542V29.9057H14.7911V28.8997ZM13.1858 28.8997C13.1858 28.5434 13.4122 28.25 13.7826 28.25C14.1325 28.25 14.3795 28.5225 14.3795 28.8997C14.3795 29.256 14.1325 29.5494 13.7826 29.5494C13.4122 29.5284 13.1858 29.256 13.1858 28.8997Z" fill="#010101"/>
<path d="M16.7471 12.6138H23.2299V24.4769H16.7471V12.6138Z" fill="#FF5F00"/>
<path d="M17.1583 18.5455C17.1583 16.1352 18.2697 13.9972 19.9778 12.6139C18.7225 11.6078 17.1378 11 15.4091 11C11.3134 11 8 14.3745 8 18.5455C8 22.7165 11.3134 26.091 15.409 26.091C17.1377 26.091 18.7224 25.4832 19.9778 24.477C18.2697 23.1146 17.1583 20.9558 17.1583 18.5455Z" fill="#EB001B"/>
<path d="M31.9758 18.5455C31.9758 22.7164 28.6624 26.091 24.5669 26.091C22.8381 26.091 21.2535 25.4832 19.998 24.477C21.7268 23.0937 22.8176 20.9558 22.8176 18.5455C22.8176 16.1352 21.7062 13.9972 19.998 12.6139C21.2534 11.6078 22.8381 11 24.5669 11C28.6624 11 31.9758 14.3955 31.9758 18.5455Z" fill="#F79E1B"/>
</g>
<defs>
<clipPath id="clip0_3439_2164">
<rect width="24" height="19" fill="white" transform="translate(8 11)"/>
</clipPath>
</defs>
</svg>
